<svg width="13" height="12" viewBox="0 0 13 12" fill="none" xmlns="http://www.w3.org/2000/svg">
    <g clip-path="url(#clip0_49_3623)">
        <path d="M7.86666 3.36V2.4H9.06666V1.44H5.70667V2.4H6.90666V3.36" fill="#61A7D4" />
        <path d="M2.82662 6.48001H1.86662V5.04001H0.906616V8.88001H1.86662V7.44001H2.82662"
            fill="#61A7D4" />
        <path
            d="M11.4667 4.80001V6.00001H10.7467V4.04233C10.7467 3.79825 10.552 3.60001 10.3125 3.60001H5.46426C5.3493 3.60001 5.23842 3.64681 5.15706 3.73009L4.02666 5.04001H3.30666C3.06666 5.04001 2.82666 5.28001 2.82666 5.52001V8.40001C2.82666 8.64433 3.06714 8.88001 3.30666 8.88001H4.02666L5.15754 10.1906C5.2389 10.2734 5.3493 10.32 5.46426 10.32H8.54946C8.66442 10.32 8.77482 10.2734 8.85618 10.1906L10.6192 8.39497C10.7011 8.31193 10.7464 8.19961 10.7464 8.08225V7.44001H11.4664V8.64001H12.4264V4.80001H11.4667Z"
            fill="#61A7D4" />
        <path
            d="M8.34666 6.71999L6.42666 9.35999L7.14666 7.19999H5.94666L7.14666 4.79999H8.34666L7.14666 6.71999H8.34666Z"
            fill="white" />
    </g>
    <defs>
        <clipPath id="clip0_49_3623">
            <rect width="12" height="12" fill="white" transform="translate(0.666626)" />
        </clipPath>
    </defs>
</svg>
