<svg width="12" height="8" viewBox="0 0 12 8" fill="none" xmlns="http://www.w3.org/2000/svg">
    <path
        d="M6.83534 4.5532V4.53107L6.70256 2.76087C6.6989 2.71293 6.67861 2.67144 6.64172 2.6364C6.60483 2.60137 6.56242 2.58385 6.51447 2.58385H5.4856C5.43765 2.58385 5.39523 2.60137 5.35835 2.6364C5.32146 2.67144 5.30116 2.71293 5.29751 2.76087L5.16473 4.53107V4.5532C5.16104 4.59744 5.17579 4.63433 5.20898 4.66381C5.24216 4.69334 5.28092 4.7081 5.32516 4.7081H6.6749C6.71915 4.7081 6.75791 4.69334 6.79109 4.66381C6.82428 4.63433 6.83904 4.59744 6.83534 4.5532ZM11.034 7.13654C11.034 7.40575 10.9492 7.54036 10.7795 7.54036H6.88511C6.93306 7.54036 6.97365 7.52283 7.00683 7.48782C7.04002 7.45276 7.05478 7.41128 7.05108 7.36334L6.94047 5.94723C6.93676 5.89928 6.91647 5.85775 6.87958 5.82274C6.84269 5.78768 6.80033 5.77021 6.75238 5.77021H5.24769C5.19976 5.77021 5.15735 5.78768 5.12047 5.82274C5.08359 5.85775 5.06331 5.89928 5.05962 5.94723L4.94898 7.36334C4.9453 7.41128 4.96005 7.45276 4.99324 7.48782C5.02643 7.52283 5.067 7.54036 5.11494 7.54036H1.22053C1.05089 7.54036 0.966064 7.40575 0.966064 7.13654C0.966064 6.93739 1.01401 6.72353 1.10989 6.49485L3.41667 0.719623C3.44617 0.649554 3.49411 0.588703 3.5605 0.537072C3.62688 0.485441 3.69695 0.459625 3.7707 0.459625H5.64598C5.59803 0.459625 5.55567 0.477145 5.51878 0.51218C5.48189 0.547215 5.4616 0.588703 5.45789 0.636646L5.37494 1.69876C5.37123 1.75039 5.386 1.7928 5.41918 1.82599C5.45236 1.85918 5.49296 1.87578 5.5409 1.87578H6.45916C6.50711 1.87578 6.5477 1.85918 6.58089 1.82599C6.61407 1.7928 6.62883 1.75039 6.62513 1.69876L6.54217 0.636646C6.53847 0.588703 6.51817 0.547215 6.48129 0.51218C6.4444 0.477145 6.40203 0.459625 6.35409 0.459625H8.22937C8.30309 0.459625 8.37316 0.485441 8.43958 0.537072C8.50595 0.588703 8.55389 0.649554 8.58342 0.719623L10.8902 6.49485C10.986 6.72353 11.034 6.93739 11.034 7.13654Z"
        fill="#61A7D4" />
</svg>
