<svg width="13" height="12" viewBox="0 0 13 12" fill="none" xmlns="http://www.w3.org/2000/svg">
    <path fill-rule="evenodd" clip-rule="evenodd"
        d="M5.33337 2H7.33337C9.21899 2 10.1618 2 10.7476 2.58579C11.3334 3.17157 11.3334 4.11438 11.3334 6C11.3334 7.88562 11.3334 8.82843 10.7476 9.41421C10.1618 10 9.21899 10 7.33337 10H5.33337C3.44776 10 2.50495 10 1.91916 9.41421C1.33337 8.82843 1.33337 7.88562 1.33337 6C1.33337 4.11438 1.33337 3.17157 1.91916 2.58579C2.50495 2 3.44776 2 5.33337 2ZM6.95837 4.5C6.95837 4.29289 7.12627 4.125 7.33337 4.125H9.83337C10.0405 4.125 10.2084 4.29289 10.2084 4.5C10.2084 4.70711 10.0405 4.875 9.83337 4.875H7.33337C7.12627 4.875 6.95837 4.70711 6.95837 4.5ZM7.45837 6C7.45837 5.79289 7.62627 5.625 7.83337 5.625H9.83337C10.0405 5.625 10.2084 5.79289 10.2084 6C10.2084 6.20711 10.0405 6.375 9.83337 6.375H7.83337C7.62627 6.375 7.45837 6.20711 7.45837 6ZM7.95837 7.5C7.95837 7.29289 8.12627 7.125 8.33337 7.125H9.83337C10.0405 7.125 10.2084 7.29289 10.2084 7.5C10.2084 7.70711 10.0405 7.875 9.83337 7.875H8.33337C8.12627 7.875 7.95837 7.70711 7.95837 7.5ZM5.83337 4.5C5.83337 5.05228 5.38566 5.5 4.83337 5.5C4.28109 5.5 3.83337 5.05228 3.83337 4.5C3.83337 3.94772 4.28109 3.5 4.83337 3.5C5.38566 3.5 5.83337 3.94772 5.83337 4.5ZM4.83337 8.5C6.83337 8.5 6.83337 8.05228 6.83337 7.5C6.83337 6.94772 5.93794 6.5 4.83337 6.5C3.7288 6.5 2.83337 6.94772 2.83337 7.5C2.83337 8.05228 2.83337 8.5 4.83337 8.5Z"
        fill="#61A7D4" />
</svg>
