<svg width="364" height="276" viewBox="0 0 364 276" fill="none" xmlns="http://www.w3.org/2000/svg">
    <g opacity="0.3">
        <rect x="45" width="274" height="77.1709" rx="6.93671" fill="white" />
        <rect x="58.8735" y="13.8734" width="78.2834" height="48.9177" rx="6.93671"
            fill="#F4F6F8" />
        <path d="M127.675 46.8736L68.1045 48.2724V38.0799H128.251L127.675 46.8736Z"
            fill="#263238" />
        <path opacity="0.5" d="M127.675 46.8736L68.1045 48.2724V38.0799H128.251L127.675 46.8736Z"
            fill="black" />
        <path
            d="M65.8103 40.6972V45.8654C65.8103 46.971 66.5303 47.9481 67.5896 48.2772L68.0113 48.4058C68.2684 48.4881 68.541 48.5241 68.8135 48.5189L71.5956 48.4521C71.2665 47.295 71.2357 46.0762 71.5134 44.9038C72.403 41.1137 76.1982 38.7636 79.9882 39.6532C83.7783 40.5429 86.1284 44.3381 85.2387 48.1281L113.548 47.4544C113.502 47.1253 113.481 46.7911 113.481 46.4568C113.497 42.5639 116.67 39.4218 120.563 39.4373C124.456 39.4527 127.598 42.6256 127.582 46.5185C127.582 46.6574 127.572 46.7911 127.572 46.9248C127.608 46.9093 127.649 46.8939 127.685 46.8785L128.652 46.4465C129.608 46.0145 130.22 45.0632 130.22 44.0192V33.4977C130.22 32.5051 129.67 31.6001 128.796 31.1372L121.519 27.3112C121.437 27.2649 121.37 27.1929 121.339 27.1055C121.267 26.9049 121.37 26.6838 121.565 26.6118L122.455 26.293C122.532 26.2673 122.584 26.2004 122.594 26.1233C122.609 26.0101 122.527 25.9073 122.414 25.8919C118.958 25.4085 105.511 23.6497 98.4396 24.5137C90.2835 25.5113 82.4721 32.5874 82.4721 32.5874C76.4707 32.3612 70.8705 34.449 68.4587 35.4981C67.6822 35.8375 67.0805 36.4906 66.808 37.2928L65.98 39.7355C65.872 40.0441 65.8154 40.3681 65.8103 40.6972Z"
            fill="#127BBF" />
        <path
            d="M113.554 47.4494C113.513 47.1408 113.492 46.8271 113.492 46.5134C113.492 46.354 113.497 46.1946 113.508 46.0403L108.391 43.9473C108.093 43.8239 107.769 43.7725 107.445 43.793L89.6361 44.9604C89.343 44.981 89.0601 45.0581 88.803 45.1918L85.4192 46.93C85.3935 47.3311 85.337 47.7322 85.2444 48.123L113.554 47.4494Z"
            fill="#263238" />
        <path
            d="M130.216 44.009V43.7416L127.321 44.6261C127.491 45.2381 127.573 45.8757 127.573 46.5082C127.573 46.6471 127.563 46.7808 127.563 46.9145C127.599 46.8991 127.64 46.8837 127.676 46.8682L128.648 46.4363C129.604 46.0043 130.216 45.0529 130.216 44.009Z"
            fill="#263238" />
        <path
            d="M66.6343 47.7166C66.912 47.9737 67.2411 48.164 67.6011 48.272L68.0228 48.4006C68.2799 48.4829 68.5524 48.5189 68.825 48.5137L71.6071 48.4469C71.5042 48.0972 71.4322 47.7372 71.3911 47.3721L66.6394 47.7166H66.6343Z"
            fill="#263238" />
        <path
            d="M120.543 38.805C120.224 38.805 119.905 38.8256 119.586 38.8667C115.364 39.3964 112.366 43.2481 112.891 47.4701L113.559 47.4547C113.513 47.1256 113.493 46.7913 113.493 46.4571C113.508 42.5642 116.681 39.4221 120.574 39.4375C124.467 39.4529 127.609 42.6259 127.593 46.5188C127.593 46.6576 127.583 46.7913 127.583 46.925C127.619 46.9096 127.66 46.8942 127.696 46.8787L128.252 46.6268V46.5188C128.252 42.2608 124.796 38.8101 120.538 38.8101H120.543V38.805Z"
            fill="#263238" />
        <path
            d="M78.3857 38.805C77.7275 38.805 77.0692 38.8873 76.4367 39.057C72.3175 40.1318 69.8491 44.3486 70.9239 48.4678L71.6079 48.4524C71.2788 47.2953 71.2479 46.0765 71.5256 44.904C72.4152 41.114 76.2104 38.7639 80.0005 39.6535C83.7905 40.5432 86.1406 44.3383 85.251 48.1284L85.9349 48.1129C86.0481 47.5884 86.0995 47.0536 86.0995 46.5136C86.0995 42.2556 82.6489 38.805 78.3909 38.805H78.3857Z"
            fill="#263238" />
        <path
            d="M85.1349 32.4541C85.0526 32.5158 84.9961 32.6032 84.9755 32.7061C84.9241 32.9426 85.068 33.1792 85.3046 33.2306L88.2616 33.9094C88.5238 33.9711 88.7964 33.9865 89.0586 33.9506L110.827 31.2507C111.357 31.1839 111.845 30.937 112.215 30.5462L115.018 27.579C115.111 27.4813 115.167 27.3527 115.183 27.219C115.213 26.8847 114.972 26.5865 114.638 26.5556C109.402 26.0259 102.784 25.5734 98.6237 26.0825C93.1675 26.751 87.737 30.4382 85.1298 32.4489L85.1349 32.4541Z"
            fill="#263238" />
        <g opacity="0.3">
            <path
                d="M99.4429 34.953C99.304 34.9016 99.232 34.7473 99.2835 34.6085C99.3452 34.4336 99.5046 34.3153 99.6897 34.3102L102.287 34.2022C102.323 34.2022 102.359 34.2022 102.39 34.2176C102.528 34.2691 102.606 34.4233 102.554 34.5622C102.492 34.737 102.328 34.8553 102.148 34.8605L99.5509 34.9684C99.5149 34.9684 99.4789 34.9684 99.448 34.953H99.4429Z"
                fill="black" />
        </g>
        <path
            d="M118.759 27.5116C118.527 27.7173 118.507 28.067 118.712 28.2984L119.329 28.9669C119.401 29.0441 119.489 29.0955 119.592 29.1264L127.136 31.2194C127.269 31.2554 127.403 31.2708 127.537 31.2708H129.033C128.956 31.2194 128.874 31.1731 128.792 31.1268L121.515 27.2956C121.33 27.2031 121.258 26.9819 121.345 26.7968L118.98 27.3882C118.897 27.4088 118.82 27.4499 118.753 27.5116H118.759Z"
            fill="#263238" />
        <path
            d="M82.4739 32.5774L82.8853 32.6956C83.2041 32.7882 83.5487 32.7111 83.8006 32.5002C86.1868 30.4844 90.3316 27.3886 94.8108 25.9435C94.8313 25.9384 94.8468 25.923 94.8571 25.9075C94.8776 25.8664 94.8673 25.815 94.8262 25.7944L94.2708 25.5064C87.8118 27.7434 82.479 32.5825 82.479 32.5825L82.4739 32.5774Z"
            fill="#263238" />
        <path opacity="0.3"
            d="M106.936 35.2979L85.2444 36.8509L85.6506 39.525C85.7741 40.3427 86.0775 41.1243 86.5403 41.8134L88.3556 44.5235L106.869 42.0191L115.621 35.2979H106.936Z"
            fill="black" />
        <path
            d="M120.536 52.3861C123.78 52.3861 126.409 49.7568 126.409 46.5134C126.409 43.2699 123.78 40.6406 120.536 40.6406C117.293 40.6406 114.664 43.2699 114.664 46.5134C114.664 49.7568 117.293 52.3861 120.536 52.3861Z"
            fill="#263238" />
        <path opacity="0.4"
            d="M123.083 49.0591C121.679 50.463 119.396 50.463 117.992 49.0591C116.588 47.6552 116.588 45.3719 117.992 43.968C119.396 42.5641 121.679 42.5641 123.083 43.968C124.487 45.3719 124.487 47.6552 123.083 49.0591Z"
            fill="white" />
        <g opacity="0.3">
            <path
                d="M120.825 43.5618C120.825 43.4027 120.696 43.2738 120.537 43.2738C120.378 43.2738 120.249 43.4027 120.249 43.5618V45.4079C120.249 45.567 120.378 45.6959 120.537 45.6959C120.696 45.6959 120.825 45.567 120.825 45.4079V43.5618Z"
                fill="white" />
        </g>
        <g opacity="0.3">
            <path
                d="M120.825 47.6191C120.825 47.46 120.696 47.3311 120.537 47.3311C120.378 47.3311 120.249 47.46 120.249 47.6191V49.4653C120.249 49.6243 120.378 49.7532 120.537 49.7532C120.696 49.7532 120.825 49.6243 120.825 49.4653V47.6191Z"
                fill="white" />
        </g>
        <g opacity="0.3">
            <path
                d="M121.636 46.21C121.497 46.2872 121.322 46.2409 121.245 46.102C121.168 45.9632 121.214 45.7883 121.353 45.7112L122.952 44.7855C123.091 44.7033 123.266 44.7547 123.348 44.8935C123.425 45.0324 123.379 45.2072 123.24 45.2844L121.641 46.21H121.636Z"
                fill="white" />
        </g>
        <g opacity="0.3">
            <path
                d="M118.124 48.2311C117.985 48.3082 117.811 48.2619 117.733 48.1231C117.656 47.9842 117.703 47.8094 117.841 47.7322L119.441 46.8066C119.58 46.7243 119.754 46.7757 119.832 46.9094C119.914 47.0483 119.868 47.2231 119.729 47.3054L118.129 48.2311H118.124Z"
                fill="white" />
        </g>
        <g opacity="0.3">
            <path
                d="M122.952 48.2364L121.352 47.3107C121.213 47.2284 121.167 47.0536 121.244 46.9147C121.326 46.7759 121.501 46.7296 121.64 46.8119L123.239 47.7375C123.378 47.8198 123.425 47.9947 123.347 48.1284C123.265 48.2672 123.09 48.3135 122.952 48.2364Z"
                fill="white" />
        </g>
        <g opacity="0.3">
            <path
                d="M119.827 46.1022C119.75 46.241 119.57 46.2873 119.436 46.205L117.837 45.2794C117.698 45.2022 117.652 45.0222 117.734 44.8885C117.811 44.7497 117.991 44.7034 118.125 44.7857L119.724 45.7114C119.863 45.7936 119.909 45.9685 119.827 46.1022Z"
                fill="white" />
        </g>
        <path
            d="M120.054 46.5134C120.054 46.246 120.27 46.03 120.538 46.03C120.805 46.03 121.021 46.246 121.021 46.5134C121.021 46.7808 120.805 46.9968 120.538 46.9968C120.27 46.9968 120.054 46.7808 120.054 46.5134Z"
            fill="#263238" />
        <path
            d="M78.3845 52.3861C81.6279 52.3861 84.2572 49.7568 84.2572 46.5134C84.2572 43.2699 81.6279 40.6406 78.3845 40.6406C75.141 40.6406 72.5117 43.2699 72.5117 46.5134C72.5117 49.7568 75.141 52.3861 78.3845 52.3861Z"
            fill="#263238" />
        <path opacity="0.4"
            d="M80.9302 49.0591C79.5262 50.463 77.243 50.463 75.8391 49.0591C74.4352 47.6552 74.4352 45.3719 75.8391 43.968C77.243 42.5641 79.5262 42.5641 80.9302 43.968C82.3341 45.3719 82.3341 47.6552 80.9302 49.0591Z"
            fill="white" />
        <g opacity="0.3">
            <path
                d="M78.6682 43.5618C78.6682 43.4027 78.5393 43.2738 78.3803 43.2738C78.2212 43.2738 78.0923 43.4027 78.0923 43.5618V45.4079C78.0923 45.567 78.2212 45.6959 78.3803 45.6959C78.5393 45.6959 78.6682 45.567 78.6682 45.4079V43.5618Z"
                fill="white" />
        </g>
        <g opacity="0.3">
            <path
                d="M78.6682 47.6191C78.6682 47.46 78.5393 47.3311 78.3803 47.3311C78.2212 47.3311 78.0923 47.46 78.0923 47.6191V49.4653C78.0923 49.6243 78.2212 49.7532 78.3803 49.7532C78.5393 49.7532 78.6682 49.6243 78.6682 49.4653V47.6191Z"
                fill="white" />
        </g>
        <g opacity="0.3">
            <path
                d="M79.4812 46.2104C79.3424 46.2875 79.1675 46.2412 79.0904 46.1024C79.0081 45.9635 79.0596 45.7887 79.1933 45.7115L80.7926 44.7859C80.9314 44.7087 81.1063 44.755 81.1834 44.8939C81.2605 45.0327 81.2143 45.2076 81.0754 45.2847L79.4761 46.2104H79.4812Z"
                fill="white" />
        </g>
        <g opacity="0.3">
            <path
                d="M75.5784 48.1231C75.5013 47.9842 75.5476 47.8094 75.6864 47.7322L77.2857 46.8066C77.4246 46.7243 77.5994 46.7706 77.6817 46.9094C77.764 47.0483 77.7126 47.2231 77.5737 47.3054L75.9744 48.231C75.8355 48.3133 75.6607 48.2619 75.5784 48.1231Z"
                fill="white" />
        </g>
        <g opacity="0.3">
            <path
                d="M81.1875 48.1335C81.1103 48.2724 80.9304 48.3186 80.7966 48.2364L79.1973 47.3107C79.0585 47.2284 79.0122 47.0536 79.0945 46.9147C79.1768 46.7759 79.3516 46.7296 79.4853 46.8119L81.0846 47.7375C81.2235 47.8198 81.2698 47.9947 81.1875 48.1284V48.1335Z"
                fill="white" />
        </g>
        <g opacity="0.3">
            <path
                d="M77.675 46.1075C77.5927 46.2463 77.4179 46.2926 77.2842 46.2104L75.6849 45.2847C75.546 45.2076 75.4997 45.0276 75.582 44.8939C75.6643 44.755 75.8391 44.7087 75.978 44.7859L77.5773 45.7115C77.7162 45.7887 77.7624 45.9687 77.6802 46.1024L77.675 46.1075Z"
                fill="white" />
        </g>
        <path
            d="M78.3855 46.03C78.6529 46.03 78.8689 46.246 78.8689 46.5134C78.8689 46.7808 78.6529 46.9968 78.3855 46.9968C78.1181 46.9968 77.9021 46.7808 77.9021 46.5134C77.9021 46.246 78.1181 46.03 78.3855 46.03Z"
            fill="#263238" />
        <path opacity="0.3"
            d="M129.599 35.4365C129.795 35.3748 129.903 35.1691 129.841 34.9737C129.774 33.7395 129.512 32.639 128.751 31.8779C128.699 31.7133 128.54 31.6002 128.365 31.6156L123.891 32.0373C123.814 32.0476 123.742 32.0784 123.68 32.1299C123.526 32.2687 123.516 32.5001 123.655 32.6544L124.935 34.0377C124.981 34.084 125.038 34.12 125.1 34.1406L129.383 35.4365C129.45 35.4571 129.527 35.4571 129.594 35.4365H129.599Z"
            fill="black" />
        <path
            d="M84.9755 32.7005C84.9241 32.9371 85.068 33.1736 85.3046 33.225L88.2616 33.9039C88.5238 33.9656 88.7964 33.981 89.0586 33.945L89.8506 33.8473L90.802 28.7665C88.8169 29.8361 86.9194 31.0703 85.1349 32.4485C85.0526 32.5102 84.9961 32.5977 84.9755 32.7005Z"
            fill="black" />
        <path
            d="M104.016 25.8713L102.267 32.3097L104.741 32.0012L105.692 25.9124C105.126 25.8918 104.566 25.8816 104.016 25.8713Z"
            fill="black" />
        <path
            d="M115.195 27.2134C115.226 26.8792 114.984 26.5861 114.65 26.5501C113.951 26.4781 113.21 26.4112 112.47 26.3444L112.192 30.5818L112.228 30.5458L115.031 27.5786C115.128 27.4809 115.185 27.3523 115.2 27.2134H115.195Z"
            fill="black" />
        <path
            d="M89.7713 32.9321C89.185 32.9321 88.7068 32.4539 88.7068 31.8676C88.7068 31.3688 89.0565 30.9368 89.545 30.8288L90.9695 30.5151L91.3038 32.8961L89.8073 32.9373C89.8073 32.9373 89.7867 32.9373 89.7816 32.9373L89.7713 32.9321Z"
            fill="#407BFF" />
        <path opacity="0.3"
            d="M90.8794 32.901L91.2959 32.8908L90.9617 30.5098L90.5554 30.5972L90.8794 32.901Z"
            fill="black" />
        <path opacity="0.6"
            d="M104.534 31.6157C104.534 31.6157 104.735 34.7527 104.534 35.7555C104.334 36.7582 102.77 44.0966 102.77 44.0966"
            stroke="black" stroke-width="0.0342143" stroke-linecap="round"
            stroke-linejoin="round" />
        <path opacity="0.6"
            d="M84.978 32.9011C84.978 32.9011 85.3791 39.679 86.094 40.9646C86.7882 42.2142 88.7989 45.1917 88.7989 45.1917"
            stroke="black" stroke-width="0.0342143" stroke-linecap="round"
            stroke-linejoin="round" />
        <path opacity="0.6"
            d="M83.2804 32.7314C83.2804 32.7314 78.2767 33.9656 76.806 34.2022C75.5975 34.3976 70.6864 35.5907 69.2053 36.1975"
            stroke="black" stroke-width="0.0342143" stroke-linecap="round"
            stroke-linejoin="round" />
        <rect x="144.715" y="19.076" width="85.8418" height="6.93671" fill="#212B36" />
        <rect x="268.709" y="22.5443" width="36.4177" height="3.46835" fill="#1FD63C" />
        <rect x="144.715" y="52.8924" width="17.3418" height="6.93671" fill="#1FD63C" />
        <rect x="255.703" y="49.4241" width="48.557" height="10.4051" fill="#127BBF" />
        <rect x="145.109" y="33.0019" width="48.8723" height="5.20253" fill="#D0E5F2" />
        <rect x="200.499" y="33.0019" width="48.8723" height="5.20253" fill="#D0E5F2" />
        <rect x="255.886" y="33.0019" width="48.8723" height="5.20253" fill="#D0E5F2" />
        <line x1="144.715" y1="44.0047" x2="304.259" y2="44.0047" stroke="#DFE3E8"
            stroke-width="0.433544" />
    </g>
    <g filter="url(#filter0_d_49_5825)">
        <rect x="24" y="93.1709" width="316" height="89" rx="8" fill="white" />
        <rect x="40" y="109.171" width="90.2831" height="56.4161" rx="8" fill="#F4F6F8" />
        <path d="M119.347 147.229L50.6453 148.843V137.088H120.012L119.347 147.229Z"
            fill="#263238" />
        <path opacity="0.5" d="M119.347 147.229L50.6453 148.843V137.088H120.012L119.347 147.229Z"
            fill="black" />
        <path
            d="M48 140.106V146.067C48 147.342 48.8303 148.469 50.0521 148.848L50.5384 148.997C50.8349 149.091 51.1492 149.133 51.4636 149.127L54.6721 149.05C54.2926 147.716 54.257 146.31 54.5772 144.958C55.6033 140.587 59.9802 137.876 64.3512 138.902C68.7222 139.928 71.4325 144.305 70.4065 148.676L103.055 147.899C103.002 147.52 102.978 147.134 102.978 146.749C102.996 142.259 106.655 138.635 111.145 138.653C115.635 138.671 119.258 142.33 119.241 146.82C119.241 146.98 119.229 147.134 119.229 147.288C119.27 147.271 119.318 147.253 119.359 147.235L120.474 146.737C121.577 146.239 122.283 145.142 122.283 143.938V131.803C122.283 130.659 121.648 129.615 120.64 129.081L112.248 124.668C112.153 124.615 112.076 124.532 112.041 124.431C111.958 124.2 112.076 123.945 112.302 123.862L113.328 123.494C113.417 123.465 113.476 123.387 113.488 123.298C113.506 123.168 113.411 123.049 113.28 123.032C109.295 122.474 93.7857 120.446 85.6308 121.442C76.2246 122.593 67.2157 130.753 67.2157 130.753C60.2945 130.492 53.8359 132.9 51.0544 134.11C50.1588 134.502 49.4649 135.255 49.1506 136.18L48.1957 138.997C48.0712 139.353 48.0059 139.727 48 140.106Z"
            fill="#127BBF" />
        <path
            d="M103.063 147.894C103.015 147.538 102.991 147.176 102.991 146.814C102.991 146.63 102.997 146.446 103.009 146.268L97.108 143.855C96.764 143.712 96.3904 143.653 96.0168 143.677L75.4785 145.023C75.1404 145.047 74.8142 145.136 74.5177 145.29L70.6152 147.294C70.5856 147.757 70.5203 148.22 70.4136 148.67L103.063 147.894Z"
            fill="#263238" />
        <path
            d="M122.278 143.926V143.617L118.939 144.637C119.135 145.343 119.23 146.079 119.23 146.808C119.23 146.968 119.218 147.122 119.218 147.277C119.26 147.259 119.307 147.241 119.349 147.223L120.47 146.725C121.573 146.227 122.278 145.13 122.278 143.926Z"
            fill="#263238" />
        <path
            d="M48.9504 148.202C49.2707 148.498 49.6503 148.718 50.0654 148.842L50.5518 148.991C50.8483 149.085 51.1626 149.127 51.477 149.121L54.6855 149.044C54.5669 148.641 54.4839 148.225 54.4364 147.804L48.9564 148.202H48.9504Z"
            fill="#263238" />
        <path
            d="M111.122 137.924C110.754 137.924 110.387 137.948 110.019 137.995C105.15 138.606 101.692 143.048 102.297 147.917L103.068 147.9C103.015 147.52 102.991 147.135 102.991 146.749C103.009 142.259 106.668 138.636 111.158 138.654C115.647 138.671 119.271 142.331 119.253 146.82C119.253 146.98 119.241 147.135 119.241 147.289C119.283 147.271 119.33 147.253 119.372 147.235L120.012 146.945V146.82C120.012 141.91 116.027 137.93 111.116 137.93H111.122V137.924Z"
            fill="#263238" />
        <path
            d="M62.5029 137.924C61.7437 137.924 60.9846 138.019 60.2551 138.215C55.5045 139.454 52.6578 144.317 53.8973 149.068L54.6861 149.05C54.3065 147.716 54.2709 146.31 54.5912 144.958C55.6172 140.587 59.9941 137.877 64.3651 138.903C68.7361 139.929 71.4465 144.306 70.4205 148.677L71.2093 148.659C71.3397 148.054 71.399 147.437 71.399 146.814C71.399 141.904 67.4195 137.924 62.5088 137.924H62.5029Z"
            fill="#263238" />
        <path
            d="M70.2864 130.6C70.1915 130.671 70.1263 130.772 70.1026 130.89C70.0433 131.163 70.2093 131.436 70.4821 131.495L73.8923 132.278C74.1948 132.349 74.5091 132.367 74.8116 132.325L99.9166 129.212C100.527 129.135 101.091 128.85 101.518 128.399L104.75 124.977C104.857 124.865 104.922 124.716 104.94 124.562C104.976 124.177 104.697 123.833 104.311 123.797C98.2738 123.186 90.6409 122.664 85.8429 123.251C79.5503 124.022 73.2874 128.275 70.2805 130.594L70.2864 130.6Z"
            fill="#263238" />
        <g opacity="0.3">
            <path
                d="M86.7877 133.482C86.6276 133.422 86.5446 133.244 86.6039 133.084C86.6751 132.883 86.8589 132.746 87.0724 132.74L90.0675 132.616C90.109 132.616 90.1505 132.616 90.1861 132.634C90.3462 132.693 90.4352 132.871 90.3759 133.031C90.3047 133.233 90.1149 133.369 89.9073 133.375L86.9123 133.499C86.8708 133.499 86.8293 133.499 86.7937 133.482H86.7877Z"
                fill="black" />
        </g>
        <path
            d="M109.064 124.9C108.797 125.137 108.773 125.54 109.011 125.807L109.722 126.578C109.805 126.667 109.906 126.726 110.025 126.762L118.725 129.176C118.879 129.217 119.034 129.235 119.188 129.235H120.914C120.825 129.176 120.73 129.122 120.635 129.069L112.243 124.651C112.029 124.544 111.946 124.289 112.047 124.075L109.319 124.757C109.224 124.781 109.135 124.828 109.058 124.9H109.064Z"
            fill="#263238" />
        <path
            d="M67.2175 130.742L67.692 130.878C68.0597 130.985 68.4571 130.896 68.7477 130.653C71.4996 128.328 76.2798 124.758 81.4455 123.091C81.4692 123.085 81.487 123.067 81.4989 123.05C81.5226 123.002 81.5107 122.943 81.4633 122.919L80.8227 122.587C73.3737 125.167 67.2235 130.748 67.2235 130.748L67.2175 130.742Z"
            fill="#263238" />
        <path opacity="0.3"
            d="M95.4296 133.879L70.4136 135.67L70.8821 138.755C71.0244 139.697 71.3744 140.599 71.9081 141.394L74.0017 144.519L95.3525 141.631L105.447 133.879H95.4296Z"
            fill="black" />
        <path
            d="M111.115 153.587C114.856 153.587 117.888 150.555 117.888 146.814C117.888 143.073 114.856 140.041 111.115 140.041C107.375 140.041 104.342 143.073 104.342 146.814C104.342 150.555 107.375 153.587 111.115 153.587Z"
            fill="#263238" />
        <path opacity="0.4"
            d="M114.051 149.75C112.432 151.369 109.799 151.369 108.18 149.75C106.561 148.131 106.561 145.498 108.18 143.879C109.799 142.259 112.432 142.259 114.051 143.879C115.67 145.498 115.67 148.131 114.051 149.75Z"
            fill="white" />
        <g opacity="0.3">
            <path
                d="M111.447 143.41C111.447 143.227 111.298 143.078 111.115 143.078C110.931 143.078 110.783 143.227 110.783 143.41V145.539C110.783 145.723 110.931 145.871 111.115 145.871C111.298 145.871 111.447 145.723 111.447 145.539V143.41Z"
                fill="white" />
        </g>
        <g opacity="0.3">
            <path
                d="M111.447 148.089C111.447 147.906 111.298 147.757 111.115 147.757C110.931 147.757 110.783 147.906 110.783 148.089V150.218C110.783 150.402 110.931 150.55 111.115 150.55C111.298 150.55 111.447 150.402 111.447 150.218V148.089Z"
                fill="white" />
        </g>
        <g opacity="0.3">
            <path
                d="M112.382 146.464C112.222 146.553 112.02 146.5 111.932 146.34C111.843 146.18 111.896 145.978 112.056 145.889L113.901 144.821C114.061 144.726 114.262 144.786 114.357 144.946C114.446 145.106 114.393 145.308 114.233 145.397L112.388 146.464H112.382Z"
                fill="white" />
        </g>
        <g opacity="0.3">
            <path
                d="M108.332 148.795C108.172 148.884 107.971 148.831 107.882 148.67C107.793 148.51 107.846 148.309 108.006 148.22L109.851 147.152C110.011 147.057 110.213 147.117 110.301 147.271C110.396 147.431 110.343 147.633 110.183 147.727L108.338 148.795H108.332Z"
                fill="white" />
        </g>
        <g opacity="0.3">
            <path
                d="M113.9 148.801L112.055 147.734C111.895 147.639 111.842 147.437 111.931 147.277C112.025 147.117 112.227 147.063 112.387 147.158L114.232 148.226C114.392 148.321 114.445 148.522 114.356 148.677C114.261 148.837 114.06 148.89 113.9 148.801Z"
                fill="white" />
        </g>
        <g opacity="0.3">
            <path
                d="M110.296 146.34C110.207 146.5 110 146.553 109.846 146.458L108.001 145.391C107.841 145.302 107.788 145.094 107.882 144.94C107.971 144.78 108.179 144.727 108.333 144.822L110.178 145.889C110.338 145.984 110.391 146.186 110.296 146.34Z"
                fill="white" />
        </g>
        <path
            d="M110.559 146.814C110.559 146.506 110.808 146.257 111.116 146.257C111.425 146.257 111.674 146.506 111.674 146.814C111.674 147.123 111.425 147.372 111.116 147.372C110.808 147.372 110.559 147.123 110.559 146.814Z"
            fill="#263238" />
        <path
            d="M62.5015 153.587C66.2421 153.587 69.2744 150.555 69.2744 146.814C69.2744 143.073 66.2421 140.041 62.5015 140.041C58.7609 140.041 55.7285 143.073 55.7285 146.814C55.7285 150.555 58.7609 153.587 62.5015 153.587Z"
            fill="#263238" />
        <path opacity="0.4"
            d="M65.4374 149.75C63.8183 151.369 61.185 151.369 59.5659 149.75C57.9468 148.131 57.9468 145.498 59.5659 143.879C61.185 142.259 63.8183 142.259 65.4374 143.879C67.0565 145.498 67.0565 148.131 65.4374 149.75Z"
            fill="white" />
        <g opacity="0.3">
            <path
                d="M62.8293 143.41C62.8293 143.227 62.6806 143.078 62.4972 143.078C62.3137 143.078 62.165 143.227 62.165 143.41V145.539C62.165 145.723 62.3137 145.871 62.4972 145.871C62.6806 145.871 62.8293 145.723 62.8293 145.539V143.41Z"
                fill="white" />
        </g>
        <g opacity="0.3">
            <path
                d="M62.8293 148.089C62.8293 147.906 62.6806 147.757 62.4972 147.757C62.3137 147.757 62.165 147.906 62.165 148.089V150.218C62.165 150.402 62.3137 150.55 62.4972 150.55C62.6806 150.55 62.8293 150.402 62.8293 150.218V148.089Z"
                fill="white" />
        </g>
        <g opacity="0.3">
            <path
                d="M63.766 146.465C63.6058 146.554 63.4042 146.5 63.3152 146.34C63.2203 146.18 63.2796 145.978 63.4338 145.889L65.2783 144.822C65.4385 144.733 65.6401 144.786 65.7291 144.946C65.818 145.106 65.7646 145.308 65.6045 145.397L63.76 146.465H63.766Z"
                fill="white" />
        </g>
        <g opacity="0.3">
            <path
                d="M59.2653 148.67C59.1763 148.51 59.2297 148.309 59.3898 148.22L61.2343 147.152C61.3944 147.057 61.5961 147.111 61.691 147.271C61.7859 147.431 61.7265 147.633 61.5664 147.727L59.7219 148.795C59.5618 148.89 59.3602 148.831 59.2653 148.67Z"
                fill="white" />
        </g>
        <g opacity="0.3">
            <path
                d="M65.734 148.682C65.6451 148.843 65.4375 148.896 65.2833 148.801L63.4388 147.734C63.2787 147.639 63.2253 147.437 63.3202 147.277C63.4151 147.117 63.6167 147.063 63.7709 147.158L65.6154 148.226C65.7755 148.321 65.8289 148.522 65.734 148.677V148.682Z"
                fill="white" />
        </g>
        <g opacity="0.3">
            <path
                d="M61.6833 146.346C61.5884 146.506 61.3867 146.56 61.2325 146.465L59.388 145.397C59.2279 145.308 59.1745 145.101 59.2694 144.946C59.3643 144.786 59.566 144.733 59.7261 144.822L61.5706 145.889C61.7307 145.978 61.7841 146.186 61.6892 146.34L61.6833 146.346Z"
                fill="white" />
        </g>
        <path
            d="M62.5026 146.257C62.811 146.257 63.0601 146.506 63.0601 146.814C63.0601 147.123 62.811 147.372 62.5026 147.372C62.1942 147.372 61.9451 147.123 61.9451 146.814C61.9451 146.506 62.1942 146.257 62.5026 146.257Z"
            fill="#263238" />
        <path opacity="0.3"
            d="M121.567 134.039C121.792 133.968 121.917 133.731 121.846 133.505C121.769 132.082 121.466 130.813 120.588 129.935C120.529 129.745 120.345 129.615 120.144 129.633L114.984 130.119C114.895 130.131 114.812 130.166 114.741 130.226C114.563 130.386 114.551 130.653 114.711 130.831L116.188 132.426C116.241 132.479 116.306 132.521 116.378 132.545L121.318 134.039C121.395 134.063 121.484 134.063 121.561 134.039H121.567Z"
            fill="black" />
        <path
            d="M70.1026 130.884C70.0433 131.157 70.2093 131.429 70.4821 131.489L73.8923 132.272C74.1948 132.343 74.5091 132.361 74.8116 132.319L75.725 132.206L76.8221 126.347C74.5329 127.58 72.3444 129.004 70.2864 130.593C70.1915 130.664 70.1263 130.765 70.1026 130.884Z"
            fill="black" />
        <path
            d="M92.0614 123.008L90.0449 130.433L92.8976 130.077L93.9948 123.055C93.3424 123.032 92.696 123.02 92.0614 123.008Z"
            fill="black" />
        <path
            d="M104.955 124.556C104.99 124.17 104.712 123.832 104.326 123.791C103.52 123.708 102.666 123.631 101.811 123.553L101.491 128.44L101.533 128.399L104.765 124.977C104.878 124.864 104.943 124.716 104.961 124.556H104.955Z"
            fill="black" />
        <path
            d="M75.6339 131.151C74.9578 131.151 74.4062 130.599 74.4062 129.923C74.4062 129.348 74.8095 128.85 75.373 128.725L77.0158 128.363L77.4013 131.109L75.6754 131.157C75.6754 131.157 75.6517 131.157 75.6458 131.157L75.6339 131.151Z"
            fill="#127BBF" />
        <path opacity="0.3"
            d="M76.9117 131.115L77.3921 131.103L77.0066 128.357L76.5381 128.458L76.9117 131.115Z"
            fill="black" />
        <path opacity="0.6"
            d="M92.6595 129.633C92.6595 129.633 92.8908 133.251 92.6595 134.407C92.4282 135.564 90.6252 144.027 90.6252 144.027"
            stroke="black" stroke-width="0.0394589" stroke-linecap="round"
            stroke-linejoin="round" />
        <path opacity="0.6"
            d="M70.1052 131.115C70.1052 131.115 70.5678 138.932 71.3922 140.415C72.1929 141.856 74.5118 145.29 74.5118 145.29"
            stroke="black" stroke-width="0.0394589" stroke-linecap="round"
            stroke-linejoin="round" />
        <path opacity="0.6"
            d="M68.1481 130.92C68.1481 130.92 62.3774 132.343 60.6812 132.616C59.2875 132.841 53.6236 134.217 51.9155 134.917"
            stroke="black" stroke-width="0.0394589" stroke-linecap="round"
            stroke-linejoin="round" />
        <rect x="139" y="115.171" width="99" height="8" fill="#212B36" />
        <rect x="282" y="119.171" width="42" height="4" fill="#1FD63C" />
        <rect x="139" y="154.171" width="20" height="8" fill="#1FD63C" />
        <rect x="267" y="150.171" width="56" height="12" fill="#127BBF" />
        <rect x="139.454" y="131.232" width="56.3636" height="6" fill="#D0E5F2" />
        <rect x="203.333" y="131.232" width="56.3636" height="6" fill="#D0E5F2" />
        <rect x="267.212" y="131.232" width="56.3636" height="6" fill="#D0E5F2" />
        <line x1="139" y1="143.921" x2="323" y2="143.921" stroke="#DFE3E8" stroke-width="0.5" />
    </g>
    <g opacity="0.3">
        <rect x="45" y="198.171" width="274" height="77.1709" rx="6.93671" fill="white" />
        <rect x="58.8735" y="212.044" width="78.2834" height="48.9177" rx="6.93671"
            fill="#F4F6F8" />
        <path d="M127.675 245.044L68.1045 246.443V236.251H128.251L127.675 245.044Z"
            fill="#263238" />
        <path opacity="0.5" d="M127.675 245.044L68.1045 246.443V236.251H128.251L127.675 245.044Z"
            fill="black" />
        <path
            d="M65.8103 238.868V244.036C65.8103 245.142 66.5303 246.119 67.5896 246.448L68.0113 246.577C68.2684 246.659 68.541 246.695 68.8135 246.69L71.5956 246.623C71.2665 245.466 71.2357 244.247 71.5134 243.075C72.403 239.285 76.1982 236.934 79.9882 237.824C83.7783 238.714 86.1284 242.509 85.2387 246.299L113.548 245.625C113.502 245.296 113.481 244.962 113.481 244.628C113.497 240.735 116.67 237.593 120.563 237.608C124.456 237.624 127.598 240.797 127.582 244.689C127.582 244.828 127.572 244.962 127.572 245.096C127.608 245.08 127.649 245.065 127.685 245.049L128.652 244.617C129.608 244.185 130.22 243.234 130.22 242.19V231.669C130.22 230.676 129.67 229.771 128.796 229.308L121.519 225.482C121.437 225.436 121.37 225.364 121.339 225.276C121.267 225.076 121.37 224.855 121.565 224.783L122.455 224.464C122.532 224.438 122.584 224.371 122.594 224.294C122.609 224.181 122.527 224.078 122.414 224.063C118.958 223.579 105.511 221.821 98.4396 222.685C90.2835 223.682 82.4721 230.758 82.4721 230.758C76.4707 230.532 70.8705 232.62 68.4587 233.669C67.6822 234.008 67.0805 234.661 66.808 235.464L65.98 237.906C65.872 238.215 65.8154 238.539 65.8103 238.868Z"
            fill="#127BBF" />
        <path
            d="M113.554 245.62C113.513 245.312 113.492 244.998 113.492 244.684C113.492 244.525 113.497 244.366 113.508 244.211L108.391 242.118C108.093 241.995 107.769 241.943 107.445 241.964L89.6361 243.131C89.343 243.152 89.0601 243.229 88.803 243.363L85.4192 245.101C85.3935 245.502 85.337 245.903 85.2444 246.294L113.554 245.62Z"
            fill="#263238" />
        <path
            d="M130.216 242.18V241.912L127.321 242.797C127.491 243.409 127.573 244.047 127.573 244.679C127.573 244.818 127.563 244.952 127.563 245.085C127.599 245.07 127.64 245.055 127.676 245.039L128.648 244.607C129.604 244.175 130.216 243.224 130.216 242.18Z"
            fill="#263238" />
        <path
            d="M66.6343 245.888C66.912 246.145 67.2411 246.335 67.6011 246.443L68.0228 246.571C68.2799 246.654 68.5524 246.69 68.825 246.685L71.6071 246.618C71.5042 246.268 71.4322 245.908 71.3911 245.543L66.6394 245.888H66.6343Z"
            fill="#263238" />
        <path
            d="M120.543 236.976C120.224 236.976 119.905 236.996 119.586 237.038C115.364 237.567 112.366 241.419 112.891 245.641L113.559 245.626C113.513 245.296 113.493 244.962 113.493 244.628C113.508 240.735 116.681 237.593 120.574 237.608C124.467 237.624 127.609 240.797 127.593 244.69C127.593 244.829 127.583 244.962 127.583 245.096C127.619 245.081 127.66 245.065 127.696 245.05L128.252 244.798V244.69C128.252 240.432 124.796 236.981 120.538 236.981H120.543V236.976Z"
            fill="#263238" />
        <path
            d="M78.3857 236.976C77.7275 236.976 77.0692 237.058 76.4367 237.228C72.3175 238.303 69.8491 242.52 70.9239 246.639L71.6079 246.623C71.2788 245.466 71.2479 244.247 71.5256 243.075C72.4152 239.285 76.2104 236.935 80.0005 237.824C83.7905 238.714 86.1406 242.509 85.251 246.299L85.9349 246.284C86.0481 245.759 86.0995 245.224 86.0995 244.685C86.0995 240.427 82.6489 236.976 78.3909 236.976H78.3857Z"
            fill="#263238" />
        <path
            d="M85.1349 230.625C85.0526 230.687 84.9961 230.774 84.9755 230.877C84.9241 231.114 85.068 231.35 85.3046 231.402L88.2616 232.08C88.5238 232.142 88.7964 232.157 89.0586 232.121L110.827 229.422C111.357 229.355 111.845 229.108 112.215 228.717L115.018 225.75C115.111 225.652 115.167 225.524 115.183 225.39C115.213 225.056 114.972 224.757 114.638 224.727C109.402 224.197 102.784 223.744 98.6237 224.253C93.1675 224.922 87.737 228.609 85.1298 230.62L85.1349 230.625Z"
            fill="#263238" />
        <g opacity="0.3">
            <path
                d="M99.4429 233.124C99.304 233.072 99.232 232.918 99.2835 232.779C99.3452 232.605 99.5046 232.486 99.6897 232.481L102.287 232.373C102.323 232.373 102.359 232.373 102.39 232.389C102.528 232.44 102.606 232.594 102.554 232.733C102.492 232.908 102.328 233.026 102.148 233.031L99.5509 233.139C99.5149 233.139 99.4789 233.139 99.448 233.124H99.4429Z"
                fill="black" />
        </g>
        <path
            d="M118.759 225.683C118.527 225.888 118.507 226.238 118.712 226.469L119.329 227.138C119.401 227.215 119.489 227.266 119.592 227.297L127.136 229.39C127.269 229.426 127.403 229.442 127.537 229.442H129.033C128.956 229.39 128.874 229.344 128.792 229.298L121.515 225.467C121.33 225.374 121.258 225.153 121.345 224.968L118.98 225.559C118.897 225.58 118.82 225.621 118.753 225.683H118.759Z"
            fill="#263238" />
        <path
            d="M82.4739 230.748L82.8853 230.867C83.2041 230.959 83.5487 230.882 83.8006 230.671C86.1868 228.655 90.3316 225.559 94.8108 224.114C94.8313 224.109 94.8468 224.094 94.8571 224.078C94.8776 224.037 94.8673 223.986 94.8262 223.965L94.2708 223.677C87.8118 225.914 82.479 230.753 82.479 230.753L82.4739 230.748Z"
            fill="#263238" />
        <path opacity="0.3"
            d="M106.936 233.469L85.2444 235.022L85.6506 237.696C85.7741 238.514 86.0775 239.295 86.5403 239.984L88.3556 242.694L106.869 240.19L115.621 233.469H106.936Z"
            fill="black" />
        <path
            d="M120.536 250.557C123.78 250.557 126.409 247.928 126.409 244.684C126.409 241.441 123.78 238.812 120.536 238.812C117.293 238.812 114.664 241.441 114.664 244.684C114.664 247.928 117.293 250.557 120.536 250.557Z"
            fill="#263238" />
        <path opacity="0.4"
            d="M123.083 247.23C121.679 248.634 119.396 248.634 117.992 247.23C116.588 245.826 116.588 243.543 117.992 242.139C119.396 240.735 121.679 240.735 123.083 242.139C124.487 243.543 124.487 245.826 123.083 247.23Z"
            fill="white" />
        <g opacity="0.3">
            <path
                d="M120.824 241.733C120.824 241.574 120.696 241.445 120.537 241.445C120.377 241.445 120.249 241.574 120.249 241.733V243.579C120.249 243.738 120.377 243.867 120.537 243.867C120.696 243.867 120.824 243.738 120.824 243.579V241.733Z"
                fill="white" />
        </g>
        <g opacity="0.3">
            <path
                d="M120.824 245.79C120.824 245.631 120.696 245.502 120.537 245.502C120.377 245.502 120.249 245.631 120.249 245.79V247.636C120.249 247.795 120.377 247.924 120.537 247.924C120.696 247.924 120.824 247.795 120.824 247.636V245.79Z"
                fill="white" />
        </g>
        <g opacity="0.3">
            <path
                d="M121.636 244.381C121.497 244.458 121.322 244.412 121.245 244.273C121.168 244.134 121.214 243.959 121.353 243.882L122.952 242.956C123.091 242.874 123.266 242.926 123.348 243.064C123.425 243.203 123.379 243.378 123.24 243.455L121.641 244.381H121.636Z"
                fill="white" />
        </g>
        <g opacity="0.3">
            <path
                d="M118.124 246.402C117.985 246.479 117.811 246.433 117.733 246.294C117.656 246.155 117.703 245.98 117.841 245.903L119.441 244.977C119.58 244.895 119.754 244.947 119.832 245.08C119.914 245.219 119.868 245.394 119.729 245.476L118.129 246.402H118.124Z"
                fill="white" />
        </g>
        <g opacity="0.3">
            <path
                d="M122.952 246.407L121.352 245.482C121.213 245.399 121.167 245.224 121.244 245.086C121.326 244.947 121.501 244.9 121.64 244.983L123.239 245.908C123.378 245.991 123.425 246.166 123.347 246.299C123.265 246.438 123.09 246.484 122.952 246.407Z"
                fill="white" />
        </g>
        <g opacity="0.3">
            <path
                d="M119.827 244.273C119.75 244.412 119.57 244.458 119.436 244.376L117.837 243.45C117.698 243.373 117.652 243.193 117.734 243.059C117.811 242.921 117.991 242.874 118.125 242.957L119.724 243.882C119.863 243.965 119.909 244.139 119.827 244.273Z"
                fill="white" />
        </g>
        <path
            d="M120.054 244.684C120.054 244.417 120.27 244.201 120.538 244.201C120.805 244.201 121.021 244.417 121.021 244.684C121.021 244.952 120.805 245.168 120.538 245.168C120.27 245.168 120.054 244.952 120.054 244.684Z"
            fill="#263238" />
        <path
            d="M78.3845 250.557C81.6279 250.557 84.2572 247.928 84.2572 244.684C84.2572 241.441 81.6279 238.812 78.3845 238.812C75.141 238.812 72.5117 241.441 72.5117 244.684C72.5117 247.928 75.141 250.557 78.3845 250.557Z"
            fill="#263238" />
        <path opacity="0.4"
            d="M80.9302 247.23C79.5262 248.634 77.243 248.634 75.8391 247.23C74.4352 245.826 74.4352 243.543 75.8391 242.139C77.243 240.735 79.5262 240.735 80.9302 242.139C82.3341 243.543 82.3341 245.826 80.9302 247.23Z"
            fill="white" />
        <g opacity="0.3">
            <path
                d="M78.6682 241.733C78.6682 241.574 78.5393 241.445 78.3803 241.445C78.2212 241.445 78.0923 241.574 78.0923 241.733V243.579C78.0923 243.738 78.2212 243.867 78.3803 243.867C78.5393 243.867 78.6682 243.738 78.6682 243.579V241.733Z"
                fill="white" />
        </g>
        <g opacity="0.3">
            <path
                d="M78.6682 245.79C78.6682 245.631 78.5393 245.502 78.3803 245.502C78.2212 245.502 78.0923 245.631 78.0923 245.79V247.636C78.0923 247.795 78.2212 247.924 78.3803 247.924C78.5393 247.924 78.6682 247.795 78.6682 247.636V245.79Z"
                fill="white" />
        </g>
        <g opacity="0.3">
            <path
                d="M79.4812 244.381C79.3424 244.458 79.1675 244.412 79.0904 244.273C79.0081 244.134 79.0596 243.96 79.1933 243.882L80.7926 242.957C80.9314 242.88 81.1063 242.926 81.1834 243.065C81.2605 243.204 81.2143 243.378 81.0754 243.456L79.4761 244.381H79.4812Z"
                fill="white" />
        </g>
        <g opacity="0.3">
            <path
                d="M75.5784 246.294C75.5013 246.155 75.5476 245.98 75.6864 245.903L77.2857 244.977C77.4246 244.895 77.5994 244.941 77.6817 245.08C77.764 245.219 77.7126 245.394 77.5737 245.476L75.9744 246.402C75.8355 246.484 75.6607 246.433 75.5784 246.294Z"
                fill="white" />
        </g>
        <g opacity="0.3">
            <path
                d="M81.1875 246.304C81.1103 246.443 80.9304 246.49 80.7966 246.407L79.1973 245.482C79.0585 245.399 79.0122 245.224 79.0945 245.086C79.1768 244.947 79.3516 244.9 79.4853 244.983L81.0846 245.908C81.2235 245.991 81.2698 246.166 81.1875 246.299V246.304Z"
                fill="white" />
        </g>
        <g opacity="0.3">
            <path
                d="M77.675 244.278C77.5927 244.417 77.4179 244.464 77.2842 244.381L75.6849 243.456C75.546 243.378 75.4997 243.198 75.582 243.065C75.6643 242.926 75.8391 242.88 75.978 242.957L77.5773 243.882C77.7162 243.96 77.7624 244.14 77.6802 244.273L77.675 244.278Z"
                fill="white" />
        </g>
        <path
            d="M78.3855 244.201C78.6529 244.201 78.8689 244.417 78.8689 244.684C78.8689 244.952 78.6529 245.168 78.3855 245.168C78.1181 245.168 77.9021 244.952 77.9021 244.684C77.9021 244.417 78.1181 244.201 78.3855 244.201Z"
            fill="#263238" />
        <path opacity="0.3"
            d="M129.599 233.607C129.795 233.546 129.903 233.34 129.841 233.145C129.774 231.91 129.512 230.81 128.751 230.049C128.699 229.884 128.54 229.771 128.365 229.787L123.891 230.208C123.814 230.218 123.742 230.249 123.68 230.301C123.526 230.44 123.516 230.671 123.655 230.825L124.935 232.209C124.981 232.255 125.038 232.291 125.1 232.311L129.383 233.607C129.45 233.628 129.527 233.628 129.594 233.607H129.599Z"
            fill="black" />
        <path
            d="M84.9755 230.871C84.9241 231.108 85.068 231.345 85.3046 231.396L88.2616 232.075C88.5238 232.136 88.7964 232.152 89.0586 232.116L89.8506 232.018L90.802 226.937C88.8169 228.007 86.9194 229.241 85.1349 230.619C85.0526 230.681 84.9961 230.769 84.9755 230.871Z"
            fill="black" />
        <path
            d="M104.016 224.042L102.267 230.481L104.741 230.172L105.692 224.083C105.126 224.063 104.566 224.052 104.016 224.042Z"
            fill="black" />
        <path
            d="M115.195 225.384C115.226 225.05 114.984 224.757 114.65 224.721C113.951 224.649 113.21 224.582 112.47 224.515L112.192 228.753L112.228 228.717L115.031 225.749C115.128 225.652 115.185 225.523 115.2 225.384H115.195Z"
            fill="black" />
        <path
            d="M89.7713 231.103C89.185 231.103 88.7068 230.625 88.7068 230.039C88.7068 229.54 89.0565 229.108 89.545 229L90.9695 228.686L91.3038 231.067L89.8073 231.108C89.8073 231.108 89.7867 231.108 89.7816 231.108L89.7713 231.103Z"
            fill="#407BFF" />
        <path opacity="0.3"
            d="M90.8794 231.072L91.2959 231.062L90.9617 228.681L90.5554 228.768L90.8794 231.072Z"
            fill="black" />
        <path opacity="0.6"
            d="M104.534 229.787C104.534 229.787 104.735 232.924 104.534 233.926C104.334 234.929 102.77 242.268 102.77 242.268"
            stroke="black" stroke-width="0.0342143" stroke-linecap="round"
            stroke-linejoin="round" />
        <path opacity="0.6"
            d="M84.978 231.072C84.978 231.072 85.3791 237.85 86.094 239.135C86.7882 240.385 88.7989 243.363 88.7989 243.363"
            stroke="black" stroke-width="0.0342143" stroke-linecap="round"
            stroke-linejoin="round" />
        <path opacity="0.6"
            d="M83.2804 230.902C83.2804 230.902 78.2767 232.137 76.806 232.373C75.5975 232.569 70.6864 233.762 69.2053 234.368"
            stroke="black" stroke-width="0.0342143" stroke-linecap="round"
            stroke-linejoin="round" />
        <rect x="144.715" y="217.247" width="85.8418" height="6.93671" fill="#212B36" />
        <rect x="268.709" y="220.715" width="36.4177" height="3.46835" fill="#1FD63C" />
        <rect x="144.715" y="251.063" width="17.3418" height="6.93671" fill="#1FD63C" />
        <rect x="255.703" y="247.595" width="48.557" height="10.4051" fill="#127BBF" />
        <rect x="145.109" y="231.173" width="48.8723" height="5.20253" fill="#D0E5F2" />
        <rect x="200.499" y="231.173" width="48.8723" height="5.20253" fill="#D0E5F2" />
        <rect x="255.886" y="231.173" width="48.8723" height="5.20253" fill="#D0E5F2" />
        <line x1="144.715" y1="242.176" x2="304.259" y2="242.176" stroke="#DFE3E8"
            stroke-width="0.433544" />
    </g>
    <defs>
        <filter id="filter0_d_49_5825" x="0" y="73.1709" width="364" height="137"
            filterUnits="userSpaceOnUse" color-interpolation-filters="sRGB">
            <feFlood flood-opacity="0" result="BackgroundImageFix" />
            <feColorMatrix in="SourceAlpha" type="matrix"
                values="0 0 0 0 0 0 0 0 0 0 0 0 0 0 0 0 0 0 127 0" result="hardAlpha" />
            <feOffset dy="4" />
            <feGaussianBlur stdDeviation="12" />
            <feComposite in2="hardAlpha" operator="out" />
            <feColorMatrix type="matrix"
                values="0 0 0 0 0.129412 0 0 0 0 0.168627 0 0 0 0 0.211765 0 0 0 0.15 0" />
            <feBlend mode="normal" in2="BackgroundImageFix" result="effect1_dropShadow_49_5825" />
            <feBlend mode="normal" in="SourceGraphic" in2="effect1_dropShadow_49_5825"
                result="shape" />
        </filter>
    </defs>
</svg>
