<svg width="335" height="340" viewBox="0 0 335 340" fill="none" xmlns="http://www.w3.org/2000/svg">
    <g opacity="0.3" clip-path="url(#clip0_49_6035)">
        <g clip-path="url(#clip1_49_6035)">
            <rect width="167.079" height="166.412" transform="translate(-127 64.0476)"
                fill="white" />
            <rect x="-115.199" y="75.8489" width="143.477" height="89.4228" rx="12.7135"
                fill="#F4F6F8" />
            <path d="M10.8996 136.331L-98.2812 138.895V120.214H11.9552L10.8996 136.331Z"
                fill="#263238" />
            <path opacity="0.5"
                d="M10.8996 136.331L-98.2812 138.895V120.214H11.9552L10.8996 136.331Z"
                fill="black" />
            <path
                d="M-102.485 125.011V134.483C-102.485 136.51 -101.166 138.3 -99.224 138.904L-98.4511 139.139C-97.9799 139.29 -97.4804 139.356 -96.9808 139.347L-91.8818 139.224C-92.485 137.104 -92.5416 134.87 -92.0326 132.721C-90.4021 125.774 -83.4463 121.467 -76.5 123.098C-69.5537 124.728 -65.2464 131.684 -66.8769 138.63L-14.9916 137.396C-15.0764 136.792 -15.1141 136.18 -15.1141 135.567C-15.0858 128.432 -9.27049 122.674 -2.13567 122.702C4.99916 122.73 10.7579 128.545 10.7296 135.68C10.7296 135.935 10.7108 136.18 10.7108 136.425C10.7768 136.397 10.8522 136.368 10.9182 136.34L12.6901 135.548C14.4432 134.757 15.5647 133.013 15.5647 131.1V111.816C15.5647 109.997 14.5563 108.338 12.954 107.49L-0.382591 100.477C-0.533394 100.393 -0.655914 100.261 -0.712471 100.1C-0.844421 99.7328 -0.655922 99.3276 -0.297768 99.1956L1.33279 98.6112C1.47416 98.5641 1.56842 98.4416 1.58727 98.3002C1.61554 98.0929 1.46474 97.9044 1.25739 97.8761C-5.07631 96.9901 -29.723 93.7667 -42.6826 95.3502C-57.6309 97.1786 -71.9477 110.148 -71.9477 110.148C-82.9468 109.733 -93.2108 113.56 -97.6312 115.482C-99.0544 116.104 -100.157 117.301 -100.657 118.772L-102.174 123.249C-102.372 123.814 -102.476 124.408 -102.485 125.011Z"
                fill="#127BBF" />
            <path
                d="M15.5578 131.081V130.591L10.2515 132.212C10.5625 133.333 10.7133 134.502 10.7133 135.661C10.7133 135.916 10.6944 136.161 10.6944 136.406C10.7604 136.378 10.8358 136.35 10.9018 136.321L12.6832 135.53C14.4362 134.738 15.5578 132.994 15.5578 131.081Z"
                fill="#263238" />
            <path
                d="M-2.17165 121.543C-2.75601 121.543 -3.34037 121.581 -3.92472 121.656C-11.6628 122.627 -17.1576 129.686 -16.1963 137.425L-14.971 137.396C-15.0558 136.793 -15.0935 136.18 -15.0935 135.568C-15.0652 128.433 -9.24993 122.674 -2.1151 122.702C5.01973 122.731 10.7785 128.546 10.7502 135.681C10.7502 135.935 10.7314 136.18 10.7314 136.425C10.7973 136.397 10.8727 136.369 10.9387 136.341L11.9566 135.879V135.681C11.9566 127.877 5.62294 121.553 -2.18108 121.553H-2.17165V121.543Z"
                fill="#263238" />
            <path
                d="M-5.44252 100.845C-5.86665 101.222 -5.90434 101.863 -5.52734 102.287L-4.39633 103.512C-4.26437 103.654 -4.10414 103.748 -3.91564 103.804L9.91103 107.64C10.1561 107.706 10.4011 107.735 10.6462 107.735H13.3889C13.2475 107.64 13.0967 107.556 12.9459 107.471L-0.390643 100.449C-0.729948 100.279 -0.861901 99.874 -0.701674 99.5347L-5.03724 100.619C-5.18804 100.656 -5.32942 100.732 -5.45194 100.845H-5.44252Z"
                fill="#263238" />
            <path
                d="M-2.18425 146.434C3.76027 146.434 8.57927 141.615 8.57927 135.671C8.57927 129.726 3.76027 124.907 -2.18425 124.907C-8.12877 124.907 -12.9478 129.726 -12.9478 135.671C-12.9478 141.615 -8.12877 146.434 -2.18425 146.434Z"
                fill="#263238" />
            <path opacity="0.4"
                d="M2.48359 140.337C-0.0894766 142.91 -4.27424 142.91 -6.8473 140.337C-9.42037 137.764 -9.42037 133.579 -6.8473 131.006C-4.27424 128.433 -0.0894766 128.433 2.48359 131.006C5.05665 133.579 5.05665 137.764 2.48359 140.337Z"
                fill="white" />
            <g opacity="0.3">
                <path
                    d="M-0.169202 135.115C-0.42368 135.256 -0.74413 135.171 -0.885507 134.917C-1.02688 134.663 -0.942059 134.342 -0.68758 134.201L2.24364 132.504C2.49812 132.353 2.81858 132.448 2.96938 132.702C3.11076 132.957 3.02592 133.277 2.77144 133.418L-0.159774 135.115H-0.169202Z"
                    fill="white" />
            </g>
            <g opacity="0.3">
                <path
                    d="M2.24217 138.829L-0.689045 137.132C-0.943523 136.981 -1.02835 136.661 -0.886972 136.407C-0.73617 136.152 -0.415718 136.067 -0.161239 136.218L2.76999 137.915C3.02447 138.065 3.10928 138.386 2.96791 138.631C2.8171 138.885 2.49665 138.97 2.24217 138.829Z"
                    fill="white" />
            </g>
            <path opacity="0.3"
                d="M14.4264 115.369C14.7846 115.256 14.9825 114.879 14.8694 114.521C14.7469 112.259 14.2662 110.242 12.8713 108.847C12.777 108.545 12.4848 108.338 12.1644 108.366L3.9645 109.139C3.82312 109.158 3.69118 109.215 3.57808 109.309C3.29533 109.563 3.27647 109.988 3.53095 110.27L5.8778 112.806C5.96263 112.89 6.06631 112.956 6.17941 112.994L14.0306 115.369C14.1531 115.407 14.2945 115.407 14.417 115.369H14.4264Z"
                fill="black" />
            <rect x="-19.1025" y="170.61" width="47.3807" height="8.00801" fill="#127BBF" />
            <rect x="-114.865" y="184.291" width="142.81" height="10.01" rx="2.33567"
                stroke="#61A7D4" stroke-width="0.667334" />
            <rect x="-115.199" y="199.973" width="143.477" height="2.66934" fill="#C4CDD5" />
            <rect x="-115.199" y="205.312" width="143.477" height="2.66934" fill="#C4CDD5" />
            <rect x="-115.199" y="210.65" width="143.477" height="2.66934" fill="#C4CDD5" />
            <rect x="-115.199" y="215.989" width="143.477" height="2.66934" fill="#C4CDD5" />
            <g filter="url(#filter0_d_49_6035)">
                <path
                    d="M-127 221.609H40.4307V256.211C40.4307 262.108 35.6503 266.889 29.7533 266.889H-116.323C-122.22 266.889 -127 262.108 -127 256.211V221.609Z"
                    fill="white" shape-rendering="crispEdges" />
                <rect x="-29.946" y="233.41" width="46.3547" height="21.6773" rx="5.33867"
                    fill="#127BBF" />
                <path
                    d="M-19.0419 246.749L-17.3068 241.924H-16.4293L-14.6976 246.749H-15.5117L-15.9421 245.538H-17.784L-18.2244 246.749H-19.0419ZM-17.5971 244.817H-16.1423L-16.8664 242.715L-17.5971 244.817ZM-12.845 246.815C-13.301 246.815 -13.6592 246.659 -13.9194 246.345C-14.1797 246.031 -14.3098 245.585 -14.3098 245.007C-14.3098 244.647 -14.2576 244.334 -14.153 244.069C-14.0462 243.802 -13.8905 243.597 -13.6859 243.452C-13.479 243.305 -13.2232 243.232 -12.9184 243.232C-12.7761 243.232 -12.6471 243.25 -12.5314 243.285C-12.4135 243.319 -12.3089 243.363 -12.2177 243.419C-12.1265 243.474 -12.0498 243.536 -11.9875 243.602C-11.923 243.669 -11.8729 243.736 -11.8374 243.802V241.79H-11.0232V246.749H-11.6238L-11.7139 246.041C-11.7406 246.124 -11.7806 246.21 -11.834 246.302C-11.8852 246.391 -11.9552 246.474 -12.0442 246.552C-12.131 246.63 -12.24 246.693 -12.3712 246.742C-12.5025 246.791 -12.6604 246.815 -12.845 246.815ZM-12.6782 246.218C-12.3868 246.218 -12.1744 246.124 -12.0409 245.935C-11.9052 245.743 -11.8374 245.427 -11.8374 244.987C-11.8396 244.736 -11.8707 244.524 -11.9308 244.353C-11.9886 244.182 -12.0787 244.053 -12.201 243.966C-12.3212 243.879 -12.4769 243.836 -12.6682 243.836C-12.9129 243.836 -13.1142 243.926 -13.2721 244.106C-13.4301 244.286 -13.509 244.58 -13.509 244.987C-13.509 245.392 -13.4367 245.699 -13.2921 245.908C-13.1476 246.115 -12.9429 246.218 -12.6782 246.218ZM-8.83711 246.815C-9.29312 246.815 -9.65126 246.659 -9.91152 246.345C-10.1718 246.031 -10.3019 245.585 -10.3019 245.007C-10.3019 244.647 -10.2496 244.334 -10.1451 244.069C-10.0383 243.802 -9.8826 243.597 -9.67795 243.452C-9.47108 243.305 -9.21527 243.232 -8.91052 243.232C-8.76815 243.232 -8.63913 243.25 -8.52346 243.285C-8.40557 243.319 -8.30102 243.363 -8.20982 243.419C-8.11861 243.474 -8.04187 243.536 -7.97959 243.602C-7.91508 243.669 -7.86503 243.736 -7.82944 243.802V241.79H-7.01529V246.749H-7.61589L-7.70598 246.041C-7.73267 246.124 -7.77271 246.21 -7.8261 246.302C-7.87726 246.391 -7.94733 246.474 -8.03631 246.552C-8.12306 246.63 -8.23206 246.693 -8.3633 246.742C-8.49455 246.791 -8.65248 246.815 -8.83711 246.815ZM-8.67028 246.218C-8.37887 246.218 -8.16644 246.124 -8.03297 245.935C-7.89728 245.743 -7.82944 245.427 -7.82944 244.987C-7.83166 244.736 -7.8628 244.524 -7.92286 244.353C-7.9807 244.182 -8.07079 244.053 -8.19313 243.966C-8.31325 243.879 -8.46896 243.836 -8.66027 243.836C-8.90496 243.836 -9.10627 243.926 -9.2642 244.106C-9.42214 244.286 -9.50111 244.58 -9.50111 244.987C-9.50111 245.392 -9.42881 245.699 -9.28422 245.908C-9.13964 246.115 -8.93499 246.218 -8.67028 246.218ZM-4.49751 246.749V241.924H-2.83918C-2.22746 241.924 -1.77034 242.033 -1.46781 242.251C-1.16306 242.467 -1.01069 242.778 -1.01069 243.185C-1.01069 243.432 -1.07408 243.646 -1.20088 243.826C-1.32767 244.006 -1.55123 244.158 -1.87155 244.283C-1.6758 244.33 -1.51452 244.394 -1.38773 244.476C-1.25871 244.557 -1.15861 244.649 -1.08743 244.753C-1.01625 244.856 -0.966198 244.966 -0.93728 245.084C-0.908362 245.202 -0.893903 245.323 -0.893903 245.447C-0.893903 245.888 -1.04739 246.215 -1.35436 246.428C-1.65911 246.642 -2.13181 246.749 -2.77245 246.749H-4.49751ZM-3.6867 246.101H-2.76244C-2.41987 246.101 -2.16073 246.04 -1.985 245.918C-1.80704 245.793 -1.71806 245.614 -1.71806 245.381C-1.71806 245.212 -1.76144 245.073 -1.84819 244.964C-1.93494 244.852 -2.05284 244.77 -2.20188 244.717C-2.35092 244.663 -2.51775 244.637 -2.70238 244.637H-3.6867V246.101ZM-3.6867 243.979H-2.70238C-2.58893 243.979 -2.47882 243.967 -2.37205 243.943C-2.26528 243.918 -2.16851 243.879 -2.08176 243.826C-1.99501 243.772 -1.92605 243.701 -1.87488 243.612C-1.8215 243.523 -1.7948 243.415 -1.7948 243.289C-1.7948 243.046 -1.88712 242.866 -2.07175 242.748C-2.25415 242.628 -2.48883 242.568 -2.77579 242.568H-3.6867V243.979ZM0.739293 243.299V246.749H-0.0414878V243.299H0.739293ZM0.749303 241.927V242.695H-0.0548345V241.927H0.749303ZM2.98461 246.815C2.5286 246.815 2.17047 246.659 1.9102 246.345C1.64994 246.031 1.51981 245.585 1.51981 245.007C1.51981 244.647 1.57209 244.334 1.67664 244.069C1.78341 243.802 1.93912 243.597 2.14377 243.452C2.35065 243.305 2.60646 243.232 2.91121 243.232C3.05357 243.232 3.18259 243.25 3.29826 243.285C3.41616 243.319 3.52071 243.363 3.61191 243.419C3.70311 243.474 3.77985 243.536 3.84214 243.602C3.90665 243.669 3.9567 243.736 3.99229 243.802V241.79H4.80644V246.749H4.20584L4.11575 246.041C4.08905 246.124 4.04901 246.21 3.99562 246.302C3.94446 246.391 3.87439 246.474 3.78541 246.552C3.69866 246.63 3.58966 246.693 3.45842 246.742C3.32718 246.791 3.16924 246.815 2.98461 246.815ZM3.15145 246.218C3.44285 246.218 3.65528 246.124 3.78875 245.935C3.92444 245.743 3.99229 245.427 3.99229 244.987C3.99006 244.736 3.95892 244.524 3.89886 244.353C3.84103 244.182 3.75094 244.053 3.62859 243.966C3.50847 243.879 3.35276 243.836 3.16146 243.836C2.91677 243.836 2.71546 243.926 2.55752 244.106C2.39958 244.286 2.32062 244.58 2.32062 244.987C2.32062 245.392 2.39291 245.699 2.5375 245.908C2.68209 246.115 2.88674 246.218 3.15145 246.218Z"
                    fill="white" />
            </g>
        </g>
    </g>
    <g filter="url(#filter1_d_49_6035)">
        <g clip-path="url(#clip2_49_6035)">
            <rect width="226.524" height="225.619" transform="translate(54 28)" fill="white" />
            <rect x="70" y="44" width="194.524" height="121.238" rx="17.2368" fill="#F4F6F8" />
            <path d="M240.962 126.001L92.936 129.477V104.15H242.393L240.962 126.001Z"
                fill="#263238" />
            <path opacity="0.5" d="M240.962 126.001L92.936 129.477V104.15H242.393L240.962 126.001Z"
                fill="black" />
            <path
                d="M87.2368 110.653V123.496C87.2368 126.243 89.0258 128.671 91.6582 129.489L92.706 129.808C93.3449 130.013 94.0222 130.102 94.6994 130.089L101.613 129.923C100.795 127.048 100.718 124.02 101.408 121.106C103.619 111.688 113.049 105.849 122.467 108.059C131.885 110.27 137.725 119.701 135.514 129.118L205.859 127.444C205.744 126.626 205.693 125.796 205.693 124.965C205.731 115.292 213.616 107.484 223.289 107.523C232.962 107.561 240.77 115.445 240.732 125.119C240.732 125.464 240.706 125.796 240.706 126.128C240.796 126.09 240.898 126.051 240.987 126.013L243.39 124.94C245.766 123.866 247.287 121.502 247.287 118.908V92.7635C247.287 90.2973 245.92 88.0482 243.747 86.8982L225.666 77.391C225.461 77.276 225.295 77.0971 225.219 76.8799C225.04 76.3815 225.295 75.8321 225.781 75.6532L227.992 74.8609C228.183 74.797 228.311 74.6309 228.337 74.4392C228.375 74.1581 228.17 73.9025 227.889 73.8642C219.302 72.663 185.887 68.2928 168.316 70.4395C148.05 72.9186 128.639 90.5017 128.639 90.5017C113.727 89.9395 99.8108 95.1275 93.8177 97.7343C91.8882 98.5777 90.3931 100.201 89.7158 102.194L87.6585 108.264C87.3902 109.03 87.2496 109.836 87.2368 110.653Z"
                fill="#127BBF" />
            <path
                d="M205.873 127.432C205.771 126.665 205.72 125.885 205.72 125.106C205.72 124.71 205.732 124.314 205.758 123.93L193.043 118.73C192.302 118.423 191.497 118.295 190.692 118.346L146.44 121.247C145.712 121.298 145.009 121.49 144.37 121.822L135.962 126.141C135.898 127.138 135.758 128.134 135.528 129.106L205.873 127.432Z"
                fill="#263238" />
            <path
                d="M247.277 118.883V118.218L240.083 120.416C240.504 121.937 240.709 123.521 240.709 125.093C240.709 125.438 240.683 125.77 240.683 126.103C240.773 126.064 240.875 126.026 240.964 125.988L243.38 124.914C245.756 123.841 247.277 121.477 247.277 118.883Z"
                fill="#263238" />
            <path
                d="M89.2839 128.096C89.974 128.735 90.7918 129.208 91.6863 129.476L92.7341 129.795C93.373 130 94.0503 130.089 94.7276 130.076L101.641 129.91C101.385 129.041 101.206 128.147 101.104 127.24L89.2967 128.096H89.2839Z"
                fill="#263238" />
            <path
                d="M223.24 105.952C222.448 105.952 221.655 106.003 220.863 106.105C210.372 107.421 202.922 116.992 204.226 127.483L205.887 127.445C205.772 126.627 205.721 125.797 205.721 124.966C205.759 115.293 213.643 107.485 223.317 107.523C232.99 107.562 240.798 115.446 240.759 125.119C240.759 125.464 240.734 125.797 240.734 126.129C240.823 126.09 240.925 126.052 241.015 126.014L242.395 125.388V125.119C242.395 114.539 233.808 105.964 223.227 105.964H223.24V105.952Z"
                fill="#263238" />
            <path
                d="M118.486 105.952C116.85 105.952 115.215 106.156 113.643 106.578C103.407 109.248 97.2737 119.727 99.9444 129.962L101.644 129.924C100.826 127.049 100.749 124.02 101.44 121.107C103.65 111.689 113.081 105.849 122.498 108.06C131.916 110.271 137.756 119.701 135.545 129.119L137.245 129.081C137.526 127.777 137.654 126.448 137.654 125.107C137.654 114.526 129.079 105.952 118.499 105.952H118.486Z"
                fill="#263238" />
            <path
                d="M135.256 90.1703C135.052 90.3237 134.911 90.5409 134.86 90.7965C134.733 91.3843 135.09 91.9721 135.678 92.0999L143.026 93.7866C143.677 93.94 144.355 93.9783 145.006 93.8888L199.098 87.1802C200.414 87.014 201.628 86.4007 202.548 85.4295L209.512 78.0563C209.742 77.8135 209.883 77.4941 209.921 77.1618C209.998 76.3312 209.397 75.5901 208.566 75.5134C195.558 74.1973 179.112 73.0728 168.774 74.3378C155.216 75.999 141.722 85.1612 135.244 90.1575L135.256 90.1703Z"
                fill="#263238" />
            <g opacity="0.3">
                <path
                    d="M170.809 96.3799C170.464 96.2521 170.285 95.8687 170.413 95.5237C170.566 95.0892 170.962 94.7954 171.422 94.7826L177.876 94.5142C177.965 94.5142 178.054 94.5142 178.131 94.5526C178.476 94.6803 178.668 95.0637 178.54 95.4087C178.387 95.8432 177.978 96.1371 177.53 96.1499L171.077 96.4182C170.988 96.4182 170.898 96.4182 170.822 96.3799H170.809Z"
                    fill="black" />
            </g>
            <path
                d="M218.806 77.8891C218.231 78.4003 218.179 79.2692 218.691 79.8442L220.224 81.5054C220.403 81.6971 220.62 81.8249 220.876 81.9016L239.622 87.1024C239.954 87.1918 240.286 87.2302 240.618 87.2302H244.337C244.145 87.1024 243.941 86.9874 243.736 86.8724L225.655 77.3524C225.195 77.1224 225.016 76.5729 225.233 76.1129L219.355 77.5824C219.151 77.6335 218.959 77.7358 218.793 77.8891H218.806Z"
                fill="#263238" />
            <path
                d="M128.644 90.4768L129.666 90.7707C130.459 91.0007 131.315 90.809 131.941 90.2851C137.87 85.2759 148.17 77.5833 159.3 73.9925C159.351 73.9798 159.389 73.9414 159.415 73.9031C159.466 73.8009 159.44 73.6731 159.338 73.622L157.958 72.9064C141.908 78.465 128.657 90.4895 128.657 90.4895L128.644 90.4768Z"
                fill="#263238" />
            <path opacity="0.3"
                d="M189.427 97.2368L135.528 101.096L136.537 107.741C136.844 109.772 137.598 111.715 138.748 113.427L143.259 120.161L189.261 113.938L211.01 97.2368H189.427Z"
                fill="black" />
            <path
                d="M223.223 139.699C231.283 139.699 237.816 133.165 237.816 125.106C237.816 117.046 231.283 110.513 223.223 110.513C215.164 110.513 208.63 117.046 208.63 125.106C208.63 133.165 215.164 139.699 223.223 139.699Z"
                fill="#263238" />
            <path opacity="0.4"
                d="M229.551 131.432C226.063 134.92 220.389 134.92 216.901 131.432C213.412 127.943 213.412 122.269 216.901 118.781C220.389 115.292 226.063 115.292 229.551 118.781C233.04 122.269 233.04 127.943 229.551 131.432Z"
                fill="white" />
            <g opacity="0.3">
                <path
                    d="M223.94 117.772C223.94 117.376 223.62 117.056 223.225 117.056C222.829 117.056 222.509 117.376 222.509 117.772V122.359C222.509 122.754 222.829 123.075 223.225 123.075C223.62 123.075 223.94 122.754 223.94 122.359V117.772Z"
                    fill="white" />
            </g>
            <g opacity="0.3">
                <path
                    d="M223.94 127.853C223.94 127.458 223.62 127.138 223.225 127.138C222.829 127.138 222.509 127.458 222.509 127.853V132.441C222.509 132.836 222.829 133.156 223.225 133.156C223.62 133.156 223.94 132.836 223.94 132.441V127.853Z"
                    fill="white" />
            </g>
            <g opacity="0.3">
                <path
                    d="M225.955 124.352C225.61 124.544 225.176 124.429 224.984 124.084C224.792 123.739 224.907 123.304 225.252 123.113L229.226 120.812C229.571 120.608 230.006 120.736 230.21 121.081C230.402 121.426 230.287 121.86 229.942 122.052L225.968 124.352H225.955Z"
                    fill="white" />
            </g>
            <g opacity="0.3">
                <path
                    d="M217.229 129.374C216.884 129.566 216.449 129.451 216.257 129.106C216.066 128.761 216.181 128.326 216.526 128.134L220.5 125.834C220.845 125.63 221.279 125.758 221.471 126.09C221.675 126.435 221.56 126.869 221.215 127.074L217.241 129.374H217.229Z"
                    fill="white" />
            </g>
            <g opacity="0.3">
                <path
                    d="M229.224 129.387L225.25 127.087C224.905 126.883 224.79 126.448 224.982 126.103C225.186 125.758 225.621 125.643 225.966 125.848L229.94 128.148C230.285 128.352 230.4 128.787 230.208 129.119C230.004 129.464 229.569 129.579 229.224 129.387Z"
                    fill="white" />
            </g>
            <g opacity="0.3">
                <path
                    d="M221.462 124.084C221.271 124.429 220.823 124.544 220.491 124.34L216.517 122.04C216.172 121.848 216.057 121.401 216.261 121.068C216.453 120.723 216.9 120.608 217.233 120.813L221.207 123.113C221.552 123.317 221.667 123.752 221.462 124.084Z"
                    fill="white" />
            </g>
            <path
                d="M222.025 125.106C222.025 124.442 222.562 123.905 223.227 123.905C223.891 123.905 224.428 124.442 224.428 125.106C224.428 125.771 223.891 126.307 223.227 126.307C222.562 126.307 222.025 125.771 222.025 125.106Z"
                fill="#263238" />
            <path
                d="M118.481 139.699C126.541 139.699 133.074 133.165 133.074 125.106C133.074 117.046 126.541 110.513 118.481 110.513C110.422 110.513 103.888 117.046 103.888 125.106C103.888 133.165 110.422 139.699 118.481 139.699Z"
                fill="#263238" />
            <path opacity="0.4"
                d="M124.808 131.432C121.319 134.92 115.645 134.92 112.157 131.432C108.668 127.943 108.668 122.269 112.157 118.781C115.645 115.292 121.319 115.292 124.808 118.781C128.296 122.269 128.296 127.943 124.808 131.432Z"
                fill="white" />
            <g opacity="0.3">
                <path
                    d="M119.188 117.772C119.188 117.376 118.868 117.056 118.472 117.056C118.077 117.056 117.757 117.376 117.757 117.772V122.359C117.757 122.754 118.077 123.075 118.472 123.075C118.868 123.075 119.188 122.754 119.188 122.359V117.772Z"
                    fill="white" />
            </g>
            <g opacity="0.3">
                <path
                    d="M119.188 127.853C119.188 127.458 118.868 127.138 118.472 127.138C118.077 127.138 117.757 127.458 117.757 127.853V132.441C117.757 132.836 118.077 133.156 118.472 133.156C118.868 133.156 119.188 132.836 119.188 132.441V127.853Z"
                    fill="white" />
            </g>
            <g opacity="0.3">
                <path
                    d="M121.207 124.353C120.862 124.545 120.427 124.43 120.235 124.085C120.031 123.74 120.159 123.305 120.491 123.113L124.465 120.813C124.81 120.622 125.245 120.737 125.436 121.082C125.628 121.427 125.513 121.861 125.168 122.053L121.194 124.353H121.207Z"
                    fill="white" />
            </g>
            <g opacity="0.3">
                <path
                    d="M111.51 129.106C111.318 128.761 111.433 128.326 111.778 128.134L115.752 125.834C116.097 125.63 116.532 125.745 116.736 126.09C116.94 126.435 116.813 126.869 116.468 127.074L112.494 129.374C112.148 129.578 111.714 129.451 111.51 129.106Z"
                    fill="white" />
            </g>
            <g opacity="0.3">
                <path
                    d="M125.448 129.132C125.256 129.477 124.809 129.592 124.477 129.387L120.503 127.087C120.158 126.883 120.043 126.448 120.247 126.103C120.451 125.758 120.886 125.643 121.218 125.848L125.192 128.148C125.537 128.352 125.652 128.787 125.448 129.119V129.132Z"
                    fill="white" />
            </g>
            <g opacity="0.3">
                <path
                    d="M116.719 124.097C116.515 124.442 116.08 124.557 115.748 124.353L111.774 122.053C111.429 121.861 111.314 121.414 111.519 121.082C111.723 120.737 112.157 120.622 112.502 120.813L116.477 123.113C116.822 123.305 116.937 123.752 116.732 124.085L116.719 124.097Z"
                    fill="white" />
            </g>
            <path
                d="M118.484 123.905C119.148 123.905 119.685 124.442 119.685 125.106C119.685 125.771 119.148 126.307 118.484 126.307C117.819 126.307 117.282 125.771 117.282 125.106C117.282 124.442 117.819 123.905 118.484 123.905Z"
                fill="#263238" />
            <path opacity="0.3"
                d="M245.744 97.5812C246.229 97.4279 246.498 96.9167 246.344 96.4311C246.178 93.3643 245.527 90.6297 243.635 88.7385C243.508 88.3296 243.112 88.0485 242.677 88.0868L231.56 89.1346C231.368 89.1602 231.189 89.2369 231.036 89.3647C230.652 89.7097 230.627 90.2847 230.972 90.6681L234.154 94.1054C234.269 94.2205 234.409 94.3099 234.563 94.361L245.207 97.5812C245.373 97.6323 245.565 97.6323 245.731 97.5812H245.744Z"
                fill="black" />
            <path
                d="M134.86 90.7827C134.733 91.3705 135.09 91.9583 135.678 92.0861L143.026 93.7728C143.677 93.9262 144.355 93.9645 145.006 93.8751L146.974 93.6323L149.338 81.0071C144.406 83.6651 139.691 86.7319 135.256 90.1565C135.052 90.3099 134.911 90.5271 134.86 90.7827Z"
                fill="black" />
            <path
                d="M182.172 73.813L177.827 89.8117L183.973 89.045L186.337 73.9153C184.932 73.8642 183.539 73.8386 182.172 73.813Z"
                fill="black" />
            <path
                d="M209.951 77.148C210.028 76.3174 209.427 75.589 208.597 75.4996C206.859 75.3207 205.019 75.1546 203.179 74.9885L202.489 85.5179L202.578 85.4285L209.542 78.0553C209.785 77.8125 209.926 77.493 209.964 77.148H209.951Z"
                fill="black" />
            <path
                d="M146.777 91.3582C145.32 91.3582 144.132 90.1698 144.132 88.713C144.132 87.4735 145.001 86.4001 146.215 86.1318L149.754 85.3523L150.585 91.2687L146.866 91.3709C146.866 91.3709 146.815 91.3709 146.803 91.3709L146.777 91.3582Z"
                fill="#127BBF" />
            <path opacity="0.3"
                d="M149.531 91.281L150.566 91.2555L149.735 85.3391L148.726 85.5563L149.531 91.281Z"
                fill="black" />
            <path opacity="0.6"
                d="M183.459 88.0872C183.459 88.0872 183.957 95.882 183.459 98.3738C182.961 100.866 179.076 119.1 179.076 119.1"
                stroke="black" stroke-width="0.085018" stroke-linecap="round"
                stroke-linejoin="round" />
            <path opacity="0.6"
                d="M134.864 91.2813C134.864 91.2813 135.861 108.123 137.637 111.318C139.362 114.423 144.358 121.822 144.358 121.822"
                stroke="black" stroke-width="0.085018" stroke-linecap="round"
                stroke-linejoin="round" />
            <path opacity="0.6"
                d="M130.646 90.8597C130.646 90.8597 118.213 93.9265 114.558 94.5143C111.555 94.9999 99.3516 97.9645 95.6714 99.4724"
                stroke="black" stroke-width="0.085018" stroke-linecap="round"
                stroke-linejoin="round" />
            <rect x="70" y="172.476" width="103.143" height="10.8571" fill="#212B36" />
            <rect x="200.286" y="172.476" width="64.2381" height="10.8571" fill="#127BBF" />
            <rect x="70.4524" y="191.024" width="193.619" height="13.5714" rx="3.16667"
                stroke="#61A7D4" stroke-width="0.904762" />
            <rect x="70" y="212.286" width="194.524" height="3.61905" fill="#C4CDD5" />
            <rect x="70" y="219.524" width="194.524" height="3.61905" fill="#C4CDD5" />
            <rect x="70" y="226.762" width="194.524" height="3.61905" fill="#C4CDD5" />
            <rect x="70" y="234" width="194.524" height="3.61905" fill="#C4CDD5" />
            <g filter="url(#filter2_d_49_6035)">
                <path
                    d="M54 241.619H281V288.619C281 296.614 274.519 303.095 266.524 303.095H68.4762C60.4812 303.095 54 296.614 54 288.619V241.619Z"
                    fill="white" shape-rendering="crispEdges" />
                <path
                    d="M99.1936 272.157V272.975L95.0859 272.98V272.161L99.1936 272.157ZM97.5559 274.618H96.7371L96.7326 270.51H97.5514L97.5559 274.618ZM101.349 275.857V270.818H100.137V270.162C100.52 270.162 100.823 270.13 101.046 270.067C101.272 270 101.437 269.904 101.539 269.777C101.645 269.65 101.705 269.497 101.72 269.316H102.471V275.857H101.349ZM106.379 269.225C107.127 269.225 107.718 269.513 108.152 270.089C108.59 270.662 108.808 271.499 108.808 272.6C108.808 273.695 108.591 274.529 108.157 275.102C107.726 275.672 107.132 275.957 106.375 275.957C105.618 275.957 105.022 275.672 104.588 275.102C104.156 274.532 103.941 273.701 103.941 272.609C103.941 271.873 104.04 271.255 104.239 270.754C104.438 270.251 104.72 269.871 105.085 269.614C105.45 269.355 105.881 269.225 106.379 269.225ZM106.379 275.038C106.804 275.038 107.121 274.85 107.329 274.473C107.537 274.096 107.641 273.473 107.641 272.604C107.641 271.718 107.536 271.081 107.325 270.695C107.113 270.309 106.797 270.116 106.375 270.116C105.952 270.116 105.633 270.311 105.415 270.7C105.201 271.089 105.094 271.724 105.094 272.604C105.094 273.47 105.201 274.093 105.415 274.473C105.633 274.85 105.954 275.038 106.379 275.038ZM112.034 269.225C112.782 269.225 113.373 269.513 113.807 270.089C114.244 270.662 114.463 271.499 114.463 272.6C114.463 273.695 114.246 274.529 113.812 275.102C113.38 275.672 112.786 275.957 112.029 275.957C111.272 275.957 110.677 275.672 110.242 275.102C109.811 274.532 109.595 273.701 109.595 272.609C109.595 271.873 109.695 271.255 109.894 270.754C110.093 270.251 110.375 269.871 110.74 269.614C111.105 269.355 111.536 269.225 112.034 269.225ZM112.034 275.038C112.459 275.038 112.776 274.85 112.984 274.473C113.192 274.096 113.296 273.473 113.296 272.604C113.296 271.718 113.19 271.081 112.979 270.695C112.768 270.309 112.452 270.116 112.029 270.116C111.607 270.116 111.287 270.311 111.07 270.7C110.856 271.089 110.749 271.724 110.749 272.604C110.749 273.47 110.856 274.093 111.07 274.473C111.287 274.85 111.609 275.038 112.034 275.038ZM117.689 269.225C118.437 269.225 119.028 269.513 119.462 270.089C119.899 270.662 120.118 271.499 120.118 272.6C120.118 273.695 119.901 274.529 119.466 275.102C119.035 275.672 118.441 275.957 117.684 275.957C116.927 275.957 116.331 275.672 115.897 275.102C115.466 274.532 115.25 273.701 115.25 272.609C115.25 271.873 115.35 271.255 115.549 270.754C115.748 270.251 116.03 269.871 116.395 269.614C116.76 269.355 117.191 269.225 117.689 269.225ZM117.689 275.038C118.114 275.038 118.43 274.85 118.639 274.473C118.847 274.096 118.951 273.473 118.951 272.604C118.951 271.718 118.845 271.081 118.634 270.695C118.423 270.309 118.106 270.116 117.684 270.116C117.262 270.116 116.942 270.311 116.725 270.7C116.511 271.089 116.404 271.724 116.404 272.604C116.404 273.47 116.511 274.093 116.725 274.473C116.942 274.85 117.263 275.038 117.689 275.038Z"
                    fill="#919EAB" />
                <rect x="87.762" y="258.071" width="39.5714" height="28.5714" rx="6.78571"
                    stroke="#919EAB" stroke-width="0.904762" />
                <rect x="131.857" y="258.071" width="41.5714" height="28.5714" rx="6.78571"
                    fill="#1FD63C" fill-opacity="0.1" />
                <path
                    d="M143.289 272.157V272.975L139.181 272.98V272.161L143.289 272.157ZM141.651 274.618H140.833L140.828 270.51H141.647L141.651 274.618ZM144.363 275.857V275.269V274.966C144.363 274.631 144.425 274.343 144.549 274.102C144.672 273.858 144.837 273.645 145.042 273.464C145.247 273.283 145.472 273.123 145.716 272.984C145.963 272.843 146.208 272.71 146.449 272.586C146.693 272.46 146.918 272.33 147.123 272.197C147.328 272.062 147.492 271.911 147.616 271.745C147.743 271.579 147.806 271.382 147.806 271.152C147.806 270.86 147.702 270.622 147.494 270.438C147.289 270.251 147.01 270.157 146.657 270.157C146.283 270.157 145.974 270.264 145.73 270.478C145.488 270.692 145.345 270.994 145.3 271.383H144.232C144.238 270.985 144.333 270.623 144.517 270.297C144.701 269.972 144.974 269.712 145.336 269.519C145.698 269.323 146.149 269.225 146.689 269.225C147.156 269.225 147.559 269.307 147.896 269.469C148.237 269.629 148.5 269.854 148.684 270.144C148.871 270.43 148.964 270.765 148.964 271.148C148.964 271.483 148.902 271.769 148.779 272.007C148.658 272.246 148.497 272.452 148.295 272.627C148.095 272.799 147.875 272.951 147.634 273.084C147.396 273.217 147.156 273.342 146.915 273.459C146.677 273.574 146.456 273.695 146.254 273.821C146.055 273.945 145.894 274.087 145.77 274.247C145.65 274.406 145.589 274.598 145.589 274.821V274.916H148.978V275.857H144.363ZM152.268 269.225C153.016 269.225 153.607 269.513 154.041 270.089C154.479 270.662 154.697 271.499 154.697 272.6C154.697 273.695 154.48 274.529 154.046 275.102C153.615 275.672 153.021 275.957 152.264 275.957C151.507 275.957 150.911 275.672 150.477 275.102C150.045 274.532 149.83 273.701 149.83 272.609C149.83 271.873 149.929 271.255 150.128 270.754C150.327 270.251 150.609 269.871 150.974 269.614C151.339 269.355 151.771 269.225 152.268 269.225ZM152.268 275.038C152.693 275.038 153.01 274.85 153.218 274.473C153.426 274.096 153.53 273.473 153.53 272.604C153.53 271.718 153.425 271.081 153.214 270.695C153.003 270.309 152.686 270.116 152.264 270.116C151.841 270.116 151.522 270.311 151.305 270.7C151.09 271.089 150.983 271.724 150.983 272.604C150.983 273.47 151.09 274.093 151.305 274.473C151.522 274.85 151.843 275.038 152.268 275.038ZM157.923 269.225C158.671 269.225 159.262 269.513 159.696 270.089C160.134 270.662 160.352 271.499 160.352 272.6C160.352 273.695 160.135 274.529 159.701 275.102C159.269 275.672 158.675 275.957 157.918 275.957C157.161 275.957 156.566 275.672 156.131 275.102C155.7 274.532 155.485 273.701 155.485 272.609C155.485 271.873 155.584 271.255 155.783 270.754C155.982 270.251 156.264 269.871 156.629 269.614C156.994 269.355 157.425 269.225 157.923 269.225ZM157.923 275.038C158.348 275.038 158.665 274.85 158.873 274.473C159.081 274.096 159.185 273.473 159.185 272.604C159.185 271.718 159.079 271.081 158.868 270.695C158.657 270.309 158.341 270.116 157.918 270.116C157.496 270.116 157.176 270.311 156.959 270.7C156.745 271.089 156.638 271.724 156.638 272.604C156.638 273.47 156.745 274.093 156.959 274.473C157.176 274.85 157.498 275.038 157.923 275.038ZM163.578 269.225C164.326 269.225 164.917 269.513 165.351 270.089C165.788 270.662 166.007 271.499 166.007 272.6C166.007 273.695 165.79 274.529 165.356 275.102C164.924 275.672 164.33 275.957 163.573 275.957C162.816 275.957 162.221 275.672 161.786 275.102C161.355 274.532 161.139 273.701 161.139 272.609C161.139 271.873 161.239 271.255 161.438 270.754C161.637 270.251 161.919 269.871 162.284 269.614C162.649 269.355 163.08 269.225 163.578 269.225ZM163.578 275.038C164.003 275.038 164.32 274.85 164.528 274.473C164.736 274.096 164.84 273.473 164.84 272.604C164.84 271.718 164.734 271.081 164.523 270.695C164.312 270.309 163.995 270.116 163.573 270.116C163.151 270.116 162.831 270.311 162.614 270.7C162.4 271.089 162.293 271.724 162.293 272.604C162.293 273.47 162.4 274.093 162.614 274.473C162.831 274.85 163.152 275.038 163.578 275.038Z"
                    fill="#1FD63C" />
                <rect x="131.857" y="258.071" width="41.5714" height="28.5714" rx="6.78571"
                    stroke="#1FD63C" stroke-width="0.904762" />
                <rect x="184.738" y="257.619" width="62.9524" height="29.4762" rx="7.2381"
                    fill="#127BBF" />
                <path
                    d="M199.522 275.857L201.874 269.316H203.064L205.412 275.857H204.308L203.724 274.215H201.227L200.63 275.857H199.522ZM201.481 273.238H203.453L202.471 270.388L201.481 273.238ZM207.923 275.948C207.305 275.948 206.82 275.735 206.467 275.31C206.114 274.884 205.937 274.28 205.937 273.496C205.937 273.007 206.008 272.583 206.15 272.224C206.295 271.863 206.506 271.584 206.783 271.388C207.064 271.189 207.411 271.089 207.824 271.089C208.017 271.089 208.192 271.113 208.349 271.161C208.508 271.207 208.65 271.267 208.774 271.342C208.897 271.418 209.002 271.501 209.086 271.591C209.173 271.682 209.241 271.772 209.29 271.863V269.135H210.393V275.857H209.579L209.457 274.898C209.421 275.01 209.366 275.127 209.294 275.251C209.225 275.372 209.13 275.485 209.009 275.59C208.891 275.696 208.744 275.782 208.566 275.848C208.388 275.914 208.174 275.948 207.923 275.948ZM208.15 275.138C208.545 275.138 208.833 275.01 209.014 274.753C209.198 274.494 209.29 274.066 209.29 273.469C209.287 273.128 209.244 272.841 209.163 272.609C209.084 272.377 208.962 272.202 208.796 272.084C208.634 271.967 208.422 271.908 208.163 271.908C207.831 271.908 207.558 272.03 207.344 272.274C207.13 272.519 207.023 272.917 207.023 273.469C207.023 274.017 207.121 274.434 207.317 274.717C207.513 274.998 207.791 275.138 208.15 275.138ZM213.357 275.948C212.739 275.948 212.253 275.735 211.901 275.31C211.548 274.884 211.371 274.28 211.371 273.496C211.371 273.007 211.442 272.583 211.584 272.224C211.729 271.863 211.94 271.584 212.217 271.388C212.498 271.189 212.845 271.089 213.258 271.089C213.451 271.089 213.626 271.113 213.782 271.161C213.942 271.207 214.084 271.267 214.208 271.342C214.331 271.418 214.435 271.501 214.52 271.591C214.607 271.682 214.675 271.772 214.723 271.863V269.135H215.827V275.857H215.013L214.891 274.898C214.855 275.01 214.8 275.127 214.728 275.251C214.659 275.372 214.564 275.485 214.443 275.59C214.325 275.696 214.178 275.782 214 275.848C213.822 275.914 213.608 275.948 213.357 275.948ZM213.583 275.138C213.979 275.138 214.267 275.01 214.447 274.753C214.631 274.494 214.723 274.066 214.723 273.469C214.72 273.128 214.678 272.841 214.597 272.609C214.518 272.377 214.396 272.202 214.23 272.084C214.067 271.967 213.856 271.908 213.597 271.908C213.265 271.908 212.992 272.03 212.778 272.274C212.564 272.519 212.457 272.917 212.457 273.469C212.457 274.017 212.555 274.434 212.751 274.717C212.947 274.998 213.225 275.138 213.583 275.138ZM219.241 275.857V269.316H221.489C222.319 269.316 222.938 269.463 223.348 269.759C223.762 270.052 223.968 270.474 223.968 271.026C223.968 271.36 223.882 271.65 223.71 271.894C223.538 272.139 223.235 272.345 222.801 272.514C223.066 272.577 223.285 272.665 223.457 272.776C223.632 272.885 223.768 273.01 223.864 273.152C223.961 273.291 224.029 273.44 224.068 273.6C224.107 273.76 224.127 273.924 224.127 274.093C224.127 274.69 223.918 275.133 223.502 275.423C223.089 275.712 222.448 275.857 221.58 275.857H219.241ZM220.34 274.979H221.593C222.058 274.979 222.409 274.897 222.647 274.731C222.889 274.562 223.009 274.319 223.009 274.002C223.009 273.773 222.95 273.585 222.833 273.437C222.715 273.286 222.555 273.174 222.353 273.102C222.151 273.03 221.925 272.994 221.675 272.994H220.34V274.979ZM220.34 272.102H221.675C221.828 272.102 221.978 272.086 222.122 272.053C222.267 272.019 222.398 271.967 222.516 271.894C222.634 271.822 222.727 271.725 222.797 271.605C222.869 271.484 222.905 271.338 222.905 271.166C222.905 270.837 222.78 270.593 222.53 270.433C222.282 270.27 221.964 270.189 221.575 270.189H220.34V272.102ZM226.341 271.179V275.857H225.282V271.179H226.341ZM226.354 269.32V270.361H225.264V269.32H226.354ZM229.385 275.948C228.767 275.948 228.281 275.735 227.928 275.31C227.575 274.884 227.399 274.28 227.399 273.496C227.399 273.007 227.47 272.583 227.612 272.224C227.756 271.863 227.967 271.584 228.245 271.388C228.525 271.189 228.872 271.089 229.285 271.089C229.478 271.089 229.653 271.113 229.81 271.161C229.97 271.207 230.112 271.267 230.235 271.342C230.359 271.418 230.463 271.501 230.548 271.591C230.635 271.682 230.703 271.772 230.751 271.863V269.135H231.855V275.857H231.041L230.919 274.898C230.882 275.01 230.828 275.127 230.756 275.251C230.686 275.372 230.591 275.485 230.471 275.59C230.353 275.696 230.205 275.782 230.027 275.848C229.849 275.914 229.635 275.948 229.385 275.948ZM229.611 275.138C230.006 275.138 230.294 275.01 230.475 274.753C230.659 274.494 230.751 274.066 230.751 273.469C230.748 273.128 230.706 272.841 230.624 272.609C230.546 272.377 230.424 272.202 230.258 272.084C230.095 271.967 229.884 271.908 229.625 271.908C229.293 271.908 229.02 272.03 228.806 272.274C228.592 272.519 228.485 272.917 228.485 273.469C228.485 274.017 228.583 274.434 228.779 274.717C228.975 274.998 229.252 275.138 229.611 275.138Z"
                    fill="white" />
            </g>
        </g>
    </g>
    <g opacity="0.3" clip-path="url(#clip3_49_6035)">
        <g clip-path="url(#clip4_49_6035)">
            <rect width="167.079" height="166.412" transform="translate(295 64.1271)"
                fill="white" />
            <rect x="306.801" y="75.9283" width="143.477" height="89.4228" rx="12.7135"
                fill="#F4F6F8" />
            <path d="M432.9 136.411L323.719 138.974V120.294H433.955L432.9 136.411Z"
                fill="#263238" />
            <path opacity="0.5" d="M432.9 136.411L323.719 138.974V120.294H433.955L432.9 136.411Z"
                fill="black" />
            <path
                d="M319.515 125.091V134.563C319.515 136.589 320.834 138.38 322.776 138.983L323.549 139.219C324.02 139.37 324.52 139.436 325.019 139.426L330.118 139.304C329.515 137.183 329.458 134.949 329.967 132.8C331.598 125.854 338.554 121.547 345.5 123.177C352.446 124.808 356.754 131.764 355.123 138.71L407.008 137.475C406.924 136.872 406.886 136.259 406.886 135.647C406.914 128.512 412.73 122.753 419.864 122.781C426.999 122.81 432.758 128.625 432.73 135.76C432.73 136.014 432.711 136.259 432.711 136.504C432.777 136.476 432.852 136.448 432.918 136.42L434.69 135.628C436.443 134.836 437.565 133.092 437.565 131.179V111.895C437.565 110.076 436.556 108.417 434.954 107.569L421.617 100.557C421.467 100.472 421.344 100.34 421.288 100.18C421.156 99.8123 421.344 99.407 421.702 99.2751L423.333 98.6907C423.474 98.6436 423.568 98.5211 423.587 98.3797C423.616 98.1723 423.465 97.9838 423.257 97.9555C416.924 97.0696 392.277 93.8462 379.317 95.4296C364.369 97.2581 350.052 110.227 350.052 110.227C339.053 109.812 328.789 113.639 324.369 115.562C322.946 116.184 321.843 117.381 321.343 118.851L319.826 123.328C319.628 123.894 319.524 124.487 319.515 125.091Z"
                fill="#127BBF" />
            <path
                d="M321.025 137.956C321.534 138.427 322.137 138.776 322.797 138.974L323.57 139.209C324.041 139.36 324.541 139.426 325.04 139.417L330.139 139.294C329.951 138.653 329.819 137.993 329.743 137.324L321.035 137.956H321.025Z"
                fill="#263238" />
            <path
                d="M342.564 121.623C341.358 121.623 340.151 121.773 338.992 122.084C331.442 124.054 326.918 131.783 328.888 139.332L330.142 139.304C329.538 137.184 329.482 134.95 329.991 132.801C331.621 125.855 338.577 121.547 345.523 123.178C352.47 124.808 356.777 131.764 355.146 138.71L356.4 138.682C356.607 137.721 356.702 136.741 356.702 135.751C356.702 127.947 350.377 121.623 342.573 121.623H342.564Z"
                fill="#263238" />
            <path
                d="M342.56 146.514C348.505 146.514 353.324 141.695 353.324 135.75C353.324 129.806 348.505 124.987 342.56 124.987C336.616 124.987 331.797 129.806 331.797 135.75C331.797 141.695 336.616 146.514 342.56 146.514Z"
                fill="#263238" />
            <path opacity="0.6"
                d="M351.533 110.491C351.533 110.491 342.362 112.753 339.667 113.187C337.452 113.545 328.451 115.731 325.736 116.844"
                stroke="black" stroke-width="0.0627076" stroke-linecap="round"
                stroke-linejoin="round" />
            <rect x="306.801" y="170.69" width="76.0761" height="8.00801" fill="#212B36" />
            <rect x="307.135" y="184.37" width="142.81" height="10.01" rx="2.33567" stroke="#61A7D4"
                stroke-width="0.667334" />
            <rect x="306.801" y="200.052" width="143.477" height="2.66934" fill="#C4CDD5" />
            <rect x="306.801" y="205.391" width="143.477" height="2.66934" fill="#C4CDD5" />
            <rect x="306.801" y="210.73" width="143.477" height="2.66934" fill="#C4CDD5" />
            <rect x="306.801" y="216.069" width="143.477" height="2.66934" fill="#C4CDD5" />
            <g filter="url(#filter3_d_49_6035)">
                <path
                    d="M295 221.688H462.431V256.291C462.431 262.188 457.65 266.968 451.753 266.968H305.677C299.78 266.968 295 262.188 295 256.291V221.688Z"
                    fill="white" shape-rendering="crispEdges" />
                <path
                    d="M327.787 244.099V244.703L324.758 244.706V244.102L327.787 244.099ZM326.579 245.914H325.976L325.972 242.884H326.576L326.579 245.914ZM329.377 246.828V243.111H328.483V242.627C328.766 242.627 328.989 242.604 329.154 242.557C329.321 242.508 329.442 242.437 329.517 242.344C329.595 242.25 329.64 242.137 329.651 242.003H330.205V246.828H329.377ZM333.087 241.937C333.639 241.937 334.075 242.149 334.395 242.574C334.718 242.997 334.879 243.614 334.879 244.426C334.879 245.233 334.719 245.848 334.399 246.271C334.08 246.691 333.642 246.902 333.084 246.902C332.526 246.902 332.086 246.691 331.766 246.271C331.448 245.851 331.289 245.238 331.289 244.432C331.289 243.89 331.362 243.434 331.509 243.064C331.656 242.693 331.864 242.413 332.133 242.224C332.402 242.032 332.72 241.937 333.087 241.937ZM333.087 246.224C333.401 246.224 333.634 246.085 333.788 245.807C333.941 245.529 334.018 245.07 334.018 244.429C334.018 243.775 333.94 243.306 333.785 243.021C333.629 242.736 333.395 242.594 333.084 242.594C332.772 242.594 332.537 242.737 332.377 243.024C332.219 243.311 332.14 243.78 332.14 244.429C332.14 245.068 332.219 245.527 332.377 245.807C332.537 246.085 332.774 246.224 333.087 246.224ZM337.258 241.937C337.81 241.937 338.246 242.149 338.566 242.574C338.889 242.997 339.05 243.614 339.05 244.426C339.05 245.233 338.89 245.848 338.569 246.271C338.251 246.691 337.813 246.902 337.255 246.902C336.696 246.902 336.257 246.691 335.937 246.271C335.619 245.851 335.46 245.238 335.46 244.432C335.46 243.89 335.533 243.434 335.68 243.064C335.827 242.693 336.035 242.413 336.304 242.224C336.573 242.032 336.891 241.937 337.258 241.937ZM337.258 246.224C337.572 246.224 337.805 246.085 337.959 245.807C338.112 245.529 338.189 245.07 338.189 244.429C338.189 243.775 338.111 243.306 337.955 243.021C337.8 242.736 337.566 242.594 337.255 242.594C336.943 242.594 336.708 242.737 336.547 243.024C336.389 243.311 336.31 243.78 336.31 244.429C336.31 245.068 336.389 245.527 336.547 245.807C336.708 246.085 336.944 246.224 337.258 246.224ZM341.429 241.937C341.981 241.937 342.417 242.149 342.737 242.574C343.059 242.997 343.221 243.614 343.221 244.426C343.221 245.233 343.061 245.848 342.74 246.271C342.422 246.691 341.984 246.902 341.426 246.902C340.867 246.902 340.428 246.691 340.108 246.271C339.79 245.851 339.63 245.238 339.63 244.432C339.63 243.89 339.704 243.434 339.851 243.064C339.997 242.693 340.205 242.413 340.475 242.224C340.744 242.032 341.062 241.937 341.429 241.937ZM341.429 246.224C341.743 246.224 341.976 246.085 342.13 245.807C342.283 245.529 342.36 245.07 342.36 244.429C342.36 243.775 342.282 243.306 342.126 243.021C341.971 242.736 341.737 242.594 341.426 242.594C341.114 242.594 340.878 242.737 340.718 243.024C340.56 243.311 340.481 243.78 340.481 244.429C340.481 245.068 340.56 245.527 340.718 245.807C340.878 246.085 341.115 246.224 341.429 246.224Z"
                    fill="#919EAB" />
                <rect x="319.356" y="233.823" width="30.01" height="21.01" rx="5.00501"
                    stroke="#919EAB" stroke-width="0.667334" />
            </g>
        </g>
    </g>
    <defs>
        <filter id="filter0_d_49_6035" x="-137.677" y="208.262" width="188.785" height="66.6346"
            filterUnits="userSpaceOnUse" color-interpolation-filters="sRGB">
            <feFlood flood-opacity="0" result="BackgroundImageFix" />
            <feColorMatrix in="SourceAlpha" type="matrix"
                values="0 0 0 0 0 0 0 0 0 0 0 0 0 0 0 0 0 0 127 0" result="hardAlpha" />
            <feOffset dy="-2.66934" />
            <feGaussianBlur stdDeviation="5.33867" />
            <feComposite in2="hardAlpha" operator="out" />
            <feColorMatrix type="matrix"
                values="0 0 0 0 0.129412 0 0 0 0 0.168627 0 0 0 0 0.211765 0 0 0 0.1 0" />
            <feBlend mode="normal" in2="BackgroundImageFix" result="effect1_dropShadow_49_6035" />
            <feBlend mode="normal" in="SourceGraphic" in2="effect1_dropShadow_49_6035"
                result="shape" />
        </filter>
        <filter id="filter1_d_49_6035" x="22" y="0" width="291" height="339.095"
            filterUnits="userSpaceOnUse" color-interpolation-filters="sRGB">
            <feFlood flood-opacity="0" result="BackgroundImageFix" />
            <feColorMatrix in="SourceAlpha" type="matrix"
                values="0 0 0 0 0 0 0 0 0 0 0 0 0 0 0 0 0 0 127 0" result="hardAlpha" />
            <feOffset dy="4" />
            <feGaussianBlur stdDeviation="16" />
            <feComposite in2="hardAlpha" operator="out" />
            <feColorMatrix type="matrix"
                values="0 0 0 0 0.129412 0 0 0 0 0.168627 0 0 0 0 0.211765 0 0 0 0.15 0" />
            <feBlend mode="normal" in2="BackgroundImageFix" result="effect1_dropShadow_49_6035" />
            <feBlend mode="normal" in="SourceGraphic" in2="effect1_dropShadow_49_6035"
                result="shape" />
        </filter>
        <filter id="filter2_d_49_6035" x="39.5238" y="223.524" width="255.952" height="90.4286"
            filterUnits="userSpaceOnUse" color-interpolation-filters="sRGB">
            <feFlood flood-opacity="0" result="BackgroundImageFix" />
            <feColorMatrix in="SourceAlpha" type="matrix"
                values="0 0 0 0 0 0 0 0 0 0 0 0 0 0 0 0 0 0 127 0" result="hardAlpha" />
            <feOffset dy="-3.61905" />
            <feGaussianBlur stdDeviation="7.2381" />
            <feComposite in2="hardAlpha" operator="out" />
            <feColorMatrix type="matrix"
                values="0 0 0 0 0.129412 0 0 0 0 0.168627 0 0 0 0 0.211765 0 0 0 0.1 0" />
            <feBlend mode="normal" in2="BackgroundImageFix" result="effect1_dropShadow_49_6035" />
            <feBlend mode="normal" in="SourceGraphic" in2="effect1_dropShadow_49_6035"
                result="shape" />
        </filter>
        <filter id="filter3_d_49_6035" x="284.323" y="208.342" width="188.785" height="66.6346"
            filterUnits="userSpaceOnUse" color-interpolation-filters="sRGB">
            <feFlood flood-opacity="0" result="BackgroundImageFix" />
            <feColorMatrix in="SourceAlpha" type="matrix"
                values="0 0 0 0 0 0 0 0 0 0 0 0 0 0 0 0 0 0 127 0" result="hardAlpha" />
            <feOffset dy="-2.66934" />
            <feGaussianBlur stdDeviation="5.33867" />
            <feComposite in2="hardAlpha" operator="out" />
            <feColorMatrix type="matrix"
                values="0 0 0 0 0.129412 0 0 0 0 0.168627 0 0 0 0 0.211765 0 0 0 0.1 0" />
            <feBlend mode="normal" in2="BackgroundImageFix" result="effect1_dropShadow_49_6035" />
            <feBlend mode="normal" in="SourceGraphic" in2="effect1_dropShadow_49_6035"
                result="shape" />
        </filter>
        <clipPath id="clip0_49_6035">
            <rect width="40" height="203" fill="white" transform="translate(0 64.0476)" />
        </clipPath>
        <clipPath id="clip1_49_6035">
            <rect x="-127" y="64.0476" width="167.431" height="202.841" rx="11.8013" fill="white" />
        </clipPath>
        <clipPath id="clip2_49_6035">
            <rect x="54" y="28" width="227" height="275.095" rx="16" fill="white" />
        </clipPath>
        <clipPath id="clip3_49_6035">
            <rect width="40" height="202.841" fill="white" transform="translate(295 64.1271)" />
        </clipPath>
        <clipPath id="clip4_49_6035">
            <rect x="295" y="64.1271" width="167.431" height="202.841" rx="11.8013" fill="white" />
        </clipPath>
    </defs>
</svg>
