<svg width="25" height="24" viewBox="0 0 25 24" fill="none" xmlns="http://www.w3.org/2000/svg">
    <path
        d="M19.5 10.25H17.5C16.3791 10.25 15.5854 9.94333 15.0711 9.42895C14.5567 8.91456 14.25 8.12092 14.25 7V5C14.25 3.87908 14.5567 3.08544 15.0711 2.57105C15.5854 2.05667 16.3791 1.75 17.5 1.75H19.5C20.6209 1.75 21.4146 2.05667 21.9289 2.57105C22.4433 3.08544 22.75 3.87908 22.75 5V7C22.75 8.12092 22.4433 8.91456 21.9289 9.42895C21.4146 9.94333 20.6209 10.25 19.5 10.25ZM17.5 2.25C16.6535 2.25 15.9305 2.4274 15.4289 2.92895C14.9274 3.43049 14.75 4.15353 14.75 5V7C14.75 7.84647 14.9274 8.56951 15.4289 9.07105C15.9305 9.5726 16.6535 9.75 17.5 9.75H19.5C20.3465 9.75 21.0695 9.5726 21.5711 9.07105C22.0726 8.56951 22.25 7.84647 22.25 7V5C22.25 4.15353 22.0726 3.43049 21.5711 2.92895C21.0695 2.4274 20.3465 2.25 19.5 2.25H17.5Z"
        fill="#C4CDD5" stroke="#C4CDD5" />
    <path
        d="M7.5 22.25H5.5C4.37908 22.25 3.58544 21.9433 3.07105 21.4289C2.55667 20.9146 2.25 20.1209 2.25 19V17C2.25 15.8791 2.55667 15.0854 3.07105 14.5711C3.58544 14.0567 4.37908 13.75 5.5 13.75H7.5C8.62092 13.75 9.41456 14.0567 9.92895 14.5711C10.4433 15.0854 10.75 15.8791 10.75 17V19C10.75 20.1209 10.4433 20.9146 9.92895 21.4289C9.41456 21.9433 8.62092 22.25 7.5 22.25ZM5.5 14.25C4.65353 14.25 3.93049 14.4274 3.42895 14.9289C2.9274 15.4305 2.75 16.1535 2.75 17V19C2.75 19.8465 2.9274 20.5695 3.42895 21.0711C3.93049 21.5726 4.65353 21.75 5.5 21.75H7.5C8.34647 21.75 9.06951 21.5726 9.57105 21.0711C10.0726 20.5695 10.25 19.8465 10.25 19V17C10.25 16.1535 10.0726 15.4305 9.57105 14.9289C9.06951 14.4274 8.34647 14.25 7.5 14.25H5.5Z"
        fill="#C4CDD5" stroke="#C4CDD5" />
    <path
        d="M6.5 10.75C3.88 10.75 1.75 8.62 1.75 6C1.75 3.38 3.88 1.25 6.5 1.25C9.12 1.25 11.25 3.38 11.25 6C11.25 8.62 9.12 10.75 6.5 10.75ZM6.5 2.75C4.71 2.75 3.25 4.21 3.25 6C3.25 7.79 4.71 9.25 6.5 9.25C8.29 9.25 9.75 7.79 9.75 6C9.75 4.21 8.29 2.75 6.5 2.75Z"
        fill="#C4CDD5" />
    <path
        d="M18.5 22.75C15.88 22.75 13.75 20.62 13.75 18C13.75 15.38 15.88 13.25 18.5 13.25C21.12 13.25 23.25 15.38 23.25 18C23.25 20.62 21.12 22.75 18.5 22.75ZM18.5 14.75C16.71 14.75 15.25 16.21 15.25 18C15.25 19.79 16.71 21.25 18.5 21.25C20.29 21.25 21.75 19.79 21.75 18C21.75 16.21 20.29 14.75 18.5 14.75Z"
        fill="#C4CDD5" />
</svg>
