<svg width="25" height="24" viewBox="0 0 25 24" fill="none" xmlns="http://www.w3.org/2000/svg">
    <path
        d="M22.25 7.99999C22.25 8.40999 21.91 8.74999 21.5 8.74999H3.5C3.09 8.74999 2.75 8.40999 2.75 7.99999C2.75 7.58999 3.09 7.24999 3.5 7.24999H4.52L4.9 5.43999C5.26 3.68999 6.01 2.07999 8.99 2.07999H16.01C18.99 2.07999 19.74 3.68999 20.1 5.43999L20.48 7.24999H21.5C21.91 7.24999 22.25 7.58999 22.25 7.99999Z"
        fill="white" />
    <path
        d="M22.68 13.66C22.53 12.01 22.09 10.25 18.88 10.25H6.11996C2.90996 10.25 2.47996 12.01 2.31996 13.66L1.75996 19.75C1.68996 20.51 1.93996 21.27 2.45996 21.84C2.98996 22.42 3.73996 22.75 4.53996 22.75H6.41996C8.03996 22.75 8.34996 21.82 8.54996 21.21L8.74996 20.61C8.97996 19.92 9.03996 19.75 9.93996 19.75H15.06C15.96 19.75 15.99 19.85 16.25 20.61L16.45 21.21C16.65 21.82 16.96 22.75 18.58 22.75H20.46C21.25 22.75 22.01 22.42 22.54 21.84C23.06 21.27 23.31 20.51 23.24 19.75L22.68 13.66ZM9.49996 15.75H6.49996C6.08996 15.75 5.74996 15.41 5.74996 15C5.74996 14.59 6.08996 14.25 6.49996 14.25H9.49996C9.90996 14.25 10.25 14.59 10.25 15C10.25 15.41 9.90996 15.75 9.49996 15.75ZM18.5 15.75H15.5C15.09 15.75 14.75 15.41 14.75 15C14.75 14.59 15.09 14.25 15.5 14.25H18.5C18.91 14.25 19.25 14.59 19.25 15C19.25 15.41 18.91 15.75 18.5 15.75Z"
        fill="white" />
</svg>
